<svg width="32" height="32" viewBox="0 0 32 32" fill="none" xmlns="http://www.w3.org/2000/svg">
<path d="M6.66699 11.9987C6.66699 14.5347 7.68699 16.8347 9.33366 18.5187V28C9.33366 28.4627 9.57366 28.8907 9.96566 29.1347C10.359 29.38 10.851 29.3987 11.263 29.1934L16.0003 26.824L20.7377 29.192C20.9257 29.2867 21.1297 29.3334 21.3337 29.3334C21.5777 29.3334 21.8203 29.2667 22.0337 29.1347C22.427 28.8907 22.667 28.4627 22.667 28V18.52C24.3137 16.836 25.3337 14.536 25.3337 11.9987C25.3337 6.85335 21.147 2.66669 16.0003 2.66669C10.8537 2.66669 6.66699 6.85335 6.66699 11.9987ZM16.5963 24.14C16.2217 23.952 15.779 23.952 15.403 24.14L12.0003 25.8427V20.42C13.215 20.9987 14.5683 21.3334 16.0003 21.3334C17.4323 21.3334 18.7857 21 20.0003 20.42V25.8414L16.5963 24.14ZM16.0003 5.33335C19.675 5.33335 22.667 8.32269 22.667 11.9987C22.667 15.676 19.6763 18.6667 16.0003 18.6667C12.3243 18.6667 9.33366 15.676 9.33366 11.9987C9.33366 8.32269 12.3243 5.33335 16.0003 5.33335Z" fill="#00264B"/>
</svg>
