<svg width="32" height="32" viewBox="0 0 32 32" fill="none" xmlns="http://www.w3.org/2000/svg">
<path d="M26.667 8.00002H22.667V5.33335C22.667 3.86269 21.471 2.66669 20.0003 2.66669H12.0003C10.5297 2.66669 9.33366 3.86269 9.33366 5.33335V8.00002H5.33366C3.86299 8.00002 2.66699 9.19602 2.66699 10.6667V25.3334C2.66699 26.804 3.86299 28 5.33366 28H26.667C28.1377 28 29.3337 26.804 29.3337 25.3334V10.6667C29.3337 9.19602 28.1377 8.00002 26.667 8.00002ZM20.0003 5.33335V8.00002H12.0003V5.33335H20.0003ZM5.33366 10.6667H10.667H21.3337H22.667H26.667V16H22.667V13.3334H20.0003V16H12.0003V13.3334H9.33366V16H5.33366V10.6667ZM5.33366 25.3334V18.6667H9.33366V21.3334H12.0003V18.6667H20.0003V21.3334H22.667V18.6667H26.6683V25.3334H5.33366Z" fill="#00264B"/>
</svg>
