<svg width="20" height="20" viewBox="0 0 20 20" fill="none" xmlns="http://www.w3.org/2000/svg">
<path d="M9.99996 1.66675C5.40496 1.66675 1.66663 5.40508 1.66663 10.0001C1.66663 14.5951 5.40496 18.3334 9.99996 18.3334C14.595 18.3334 18.3333 14.5951 18.3333 10.0001C18.3333 5.40508 14.595 1.66675 9.99996 1.66675ZM9.99996 16.6667C6.32413 16.6667 3.33329 13.6759 3.33329 10.0001C3.33329 6.32425 6.32413 3.33341 9.99996 3.33341C13.6758 3.33341 16.6666 6.32425 16.6666 10.0001C16.6666 13.6759 13.6758 16.6667 9.99996 16.6667Z" fill="#E87525"/>
<path d="M8.33249 11.3226L6.41666 9.41005L5.23999 10.5901L8.33416 13.6776L13.9225 8.08922L12.7442 6.91089L8.33249 11.3226Z" fill="#E87525"/>
</svg>
