<svg width="20" height="20" viewBox="0 0 20 20" fill="none" xmlns="http://www.w3.org/2000/svg">
<path d="M15.8715 6.1674C16.1865 5.8524 16.3598 5.43407 16.3598 4.98907C16.3598 4.54407 16.1865 4.12573 15.8715 3.81073L14.5498 2.48907C14.2348 2.17407 13.8165 2.00073 13.3715 2.00073C12.9265 2.00073 12.5082 2.17407 12.194 2.48823L3.33398 11.3207V14.9999H7.01148L15.8715 6.1674ZM13.3715 3.6674L14.694 4.98823L13.369 6.30823L12.0473 4.9874L13.3715 3.6674ZM5.00065 13.3332V12.0124L10.8673 6.16407L12.189 7.48573L6.32315 13.3332H5.00065ZM3.33398 16.6666H16.6673V18.3332H3.33398V16.6666Z" fill="#33354D"/>
</svg>
