<svg width="18" height="18" viewBox="0 0 18 18" fill="none" xmlns="http://www.w3.org/2000/svg">
<path d="M4.125 11.25C4.8075 11.25 5.42475 10.9815 5.89275 10.5525L10.5877 13.2352C10.536 13.4415 10.5 13.653 10.5 13.875C10.5 15.3225 11.6775 16.5 13.125 16.5C14.5725 16.5 15.75 15.3225 15.75 13.875C15.75 12.4275 14.5725 11.25 13.125 11.25C12.4425 11.25 11.8252 11.5185 11.3573 11.9475L6.66225 9.26475C6.7095 9.0795 6.7395 8.88825 6.74325 8.68875L11.3565 6.0525C11.8253 6.4815 12.4425 6.75 13.125 6.75C14.5725 6.75 15.75 5.5725 15.75 4.125C15.75 2.6775 14.5725 1.5 13.125 1.5C11.6775 1.5 10.5 2.6775 10.5 4.125C10.5 4.347 10.536 4.5585 10.5877 4.76475L6.32475 7.2015C5.856 6.48 5.04675 6 4.125 6C2.6775 6 1.5 7.1775 1.5 8.625C1.5 10.0725 2.6775 11.25 4.125 11.25ZM13.125 12.75C13.7452 12.75 14.25 13.2548 14.25 13.875C14.25 14.4952 13.7452 15 13.125 15C12.5048 15 12 14.4952 12 13.875C12 13.2548 12.5048 12.75 13.125 12.75ZM13.125 3C13.7452 3 14.25 3.50475 14.25 4.125C14.25 4.74525 13.7452 5.25 13.125 5.25C12.5048 5.25 12 4.74525 12 4.125C12 3.50475 12.5048 3 13.125 3ZM4.125 7.5C4.74525 7.5 5.25 8.00475 5.25 8.625C5.25 9.24525 4.74525 9.75 4.125 9.75C3.50475 9.75 3 9.24525 3 8.625C3 8.00475 3.50475 7.5 4.125 7.5Z" fill="#9397AD"/>
</svg>
