<svg width="32" height="32" viewBox="0 0 32 32" fill="none" xmlns="http://www.w3.org/2000/svg">
<path d="M8.68798 19.0974L6.70131 27.7C6.57865 28.232 6.79198 28.7854 7.24265 29.096C7.47065 29.2534 7.73465 29.3334 7.99998 29.3334C8.25732 29.3334 8.51598 29.2587 8.73998 29.1094L16 24.2694L23.26 29.1094C23.724 29.4187 24.3333 29.4067 24.7866 29.0774C25.2373 28.748 25.436 28.1707 25.2826 27.6347L22.844 19.1014L28.892 13.6587C29.288 13.3014 29.4333 12.744 29.2626 12.24C29.0907 11.736 28.636 11.3814 28.1053 11.3387L20.504 10.7334L17.2146 3.45202C17 2.97335 16.524 2.66669 16 2.66669C15.476 2.66669 15 2.97335 14.7853 3.45202L11.496 10.7334L3.89465 11.3374C3.37198 11.3787 2.92265 11.7214 2.74665 12.2134C2.56798 12.7054 2.69598 13.256 3.06932 13.6214L8.68798 19.0974ZM12.492 13.3294C12.976 13.2907 13.4026 12.992 13.6013 12.548L16 7.24002L18.3986 12.548C18.5973 12.992 19.024 13.2907 19.508 13.3294L24.804 13.7494L20.4426 17.6747C20.064 18.016 19.9133 18.5414 20.052 19.032L21.7226 24.8787L16.7413 21.5574C16.2933 21.2574 15.7106 21.2574 15.2626 21.5574L10.0573 25.028L11.4573 18.9667C11.5613 18.5134 11.4226 18.0374 11.0893 17.7134L7.03865 13.764L12.492 13.3294Z" fill="#00264B"/>
</svg>
