<svg width="20" height="20" viewBox="0 0 20 20" fill="none" xmlns="http://www.w3.org/2000/svg">
<path d="M16.2878 12.5208V10.5033H18.3062V8.99083H16.2878V6.97333H14.7753V8.99083H12.7578V10.5033H14.7753V12.5208H16.2878ZM6.71033 6.91833C7.65449 6.91833 8.29033 7.32167 8.65199 7.665L10.087 6.27333C9.21366 5.45667 8.07449 4.95667 6.71033 4.95667C3.92866 4.95583 1.66699 7.21583 1.66699 10C1.66699 12.7842 3.92866 15.0442 6.71033 15.0442C9.62116 15.0442 11.5537 12.9967 11.5537 10.1167C11.5537 9.6975 11.5003 9.4 11.4262 9.08333H6.70783V10.9592V10.9633H9.48449C9.35283 11.7558 8.64199 13.0933 6.71033 13.0933C5.04116 13.0933 3.67949 11.7058 3.67949 10.0067C3.67949 8.305 5.04116 6.91833 6.71033 6.91833Z" fill="#33354D"/>
</svg>
