<svg width="48" height="48" viewBox="0 0 48 48" fill="none" xmlns="http://www.w3.org/2000/svg">
<rect width="48" height="48" rx="24" fill="white"/>
<path d="M32 15H16C15.447 15 15 15.448 15 16V32C15 32.552 15.447 33 16 33H24.615V26.04H22.277V23.315H24.615V21.315C24.615 18.99 26.035 17.723 28.115 17.723C28.814 17.721 29.514 17.757 30.21 17.83V20.25H28.775C27.647 20.25 27.427 20.788 27.427 21.575V23.31H30.124L29.774 26.035H27.426V33H32C32.553 33 33 32.552 33 32V16C33 15.448 32.553 15 32 15Z" fill="#4267B2"/>
</svg>
