<svg width="48" height="48" viewBox="0 0 48 48" fill="none" xmlns="http://www.w3.org/2000/svg">
<rect width="48" height="48" rx="24" fill="white"/>
<path d="M23.999 19.377C21.445 19.377 19.376 21.447 19.376 24C19.376 26.554 21.445 28.624 23.999 28.624C26.551 28.624 28.622 26.554 28.622 24C28.622 21.447 26.551 19.377 23.999 19.377ZM23.999 27.004C22.34 27.004 20.995 25.659 20.995 24.001C20.995 22.342 22.34 20.998 23.999 20.998C25.658 20.998 27.001 22.342 27.001 24.001C27.001 25.659 25.658 27.004 23.999 27.004Z" fill="#0B0F19"/>
<path d="M28.8055 20.2849C29.4009 20.2849 29.8835 19.8023 29.8835 19.2069C29.8835 18.6115 29.4009 18.1289 28.8055 18.1289C28.2102 18.1289 27.7275 18.6115 27.7275 19.2069C27.7275 19.8023 28.2102 20.2849 28.8055 20.2849Z" fill="#0B0F19"/>
<path d="M32.533 18.1109C32.064 16.9019 31.109 15.9459 29.9 15.4789C29.201 15.2159 28.462 15.0749 27.714 15.0589C26.751 15.0169 26.446 15.0049 24.004 15.0049C21.562 15.0049 21.249 15.0049 20.294 15.0589C19.548 15.0739 18.809 15.2149 18.11 15.4789C16.9 15.9459 15.945 16.9019 15.477 18.1109C15.214 18.8109 15.073 19.5489 15.058 20.2969C15.015 21.2589 15.002 21.5639 15.002 24.0069C15.002 26.4489 15.002 26.7599 15.058 27.7169C15.073 28.4649 15.214 29.2029 15.477 29.9039C15.946 31.1119 16.901 32.0679 18.111 32.5359C18.807 32.8079 19.546 32.9619 20.296 32.9859C21.259 33.0279 21.564 33.0409 24.006 33.0409C26.448 33.0409 26.761 33.0409 27.716 32.9859C28.463 32.9709 29.202 32.8289 29.902 32.5669C31.111 32.0979 32.066 31.1429 32.535 29.9339C32.798 29.2339 32.939 28.4959 32.954 27.7479C32.997 26.7859 33.01 26.4809 33.01 24.0379C33.01 21.5949 33.01 21.2849 32.954 20.3279C32.941 19.5699 32.801 18.8189 32.533 18.1109ZM31.315 27.6429C31.308 28.2189 31.204 28.7899 31.004 29.3309C30.699 30.1179 30.078 30.7399 29.292 31.0419C28.757 31.2409 28.193 31.3449 27.622 31.3529C26.672 31.3969 26.404 31.4079 23.968 31.4079C21.53 31.4079 21.281 31.4079 20.313 31.3529C19.744 31.3459 19.178 31.2409 18.644 31.0419C17.855 30.7409 17.23 30.1189 16.925 29.3309C16.729 28.7969 16.623 28.2319 16.614 27.6619C16.571 26.7119 16.561 26.4439 16.561 24.0079C16.561 21.5709 16.561 21.3219 16.614 20.3529C16.621 19.7769 16.725 19.2069 16.925 18.6659C17.23 17.8769 17.855 17.2559 18.644 16.9539C19.178 16.7559 19.744 16.6509 20.313 16.6429C21.264 16.5999 21.531 16.5879 23.968 16.5879C26.405 16.5879 26.655 16.5879 27.622 16.6429C28.193 16.6499 28.757 16.7549 29.292 16.9539C30.078 17.2569 30.699 17.8789 31.004 18.6659C31.2 19.1999 31.306 19.7649 31.315 20.3349C31.358 21.2859 31.369 21.5529 31.369 23.9899C31.369 26.4259 31.369 26.6879 31.326 27.6439H31.315V27.6429Z" fill="#0B0F19"/>
</svg>
