<svg width="48" height="48" viewBox="0 0 48 48" fill="none" xmlns="http://www.w3.org/2000/svg">
<rect width="48" height="48" rx="24" fill="white"/>
<path d="M31.633 19.997C31.646 20.172 31.646 20.346 31.646 20.52C31.646 25.845 27.593 31.981 20.186 31.981C17.904 31.981 15.784 31.32 14 30.172C14.324 30.209 14.636 30.222 14.973 30.222C16.856 30.222 18.589 29.586 19.974 28.501C18.203 28.464 16.719 27.304 16.207 25.708C16.456 25.745 16.706 25.77 16.968 25.77C17.329 25.77 17.692 25.72 18.029 25.633C16.182 25.259 14.799 23.638 14.799 21.68V21.63C15.336 21.929 15.959 22.116 16.619 22.141C15.534 21.419 14.823 20.184 14.823 18.787C14.823 18.039 15.022 17.353 15.371 16.755C17.354 19.198 20.335 20.795 23.677 20.97C23.615 20.67 23.577 20.359 23.577 20.047C23.577 17.827 25.373 16.019 27.605 16.019C28.765 16.019 29.812 16.505 30.548 17.291C31.458 17.116 32.33 16.779 33.104 16.318C32.805 17.253 32.168 18.039 31.333 18.538C32.144 18.45 32.93 18.226 33.652 17.914C33.104 18.712 32.419 19.423 31.633 19.997Z" fill="#1DA1F2"/>
</svg>
