<svg width="48" height="48" viewBox="0 0 48 48" fill="none" xmlns="http://www.w3.org/2000/svg">
<rect width="48" height="48" rx="24" fill="white"/>
<path d="M33.5933 19.203C33.3633 18.345 32.6883 17.668 31.8313 17.437C30.2653 17.007 24.0003 17 24.0003 17C24.0003 17 17.7363 16.993 16.1693 17.404C15.3293 17.633 14.6353 18.325 14.4033 19.182C13.9903 20.748 13.9863 23.996 13.9863 23.996C13.9863 23.996 13.9823 27.26 14.3923 28.81C14.6223 29.667 15.2973 30.344 16.1553 30.575C17.7373 31.005 23.9853 31.012 23.9853 31.012C23.9853 31.012 30.2503 31.019 31.8163 30.609C32.6723 30.379 33.3503 29.703 33.5833 28.846C33.9973 27.281 34.0003 24.034 34.0003 24.034C34.0003 24.034 34.0203 20.769 33.5933 19.203ZM21.9963 27.005L22.0013 21.005L27.2083 24.01L21.9963 27.005Z" fill="#FF0000"/>
</svg>
