<svg width="16" height="16" viewBox="0 0 16 16" fill="none" xmlns="http://www.w3.org/2000/svg">
<g clip-path="url(#clip0_1_2724)">
<path d="M0.37775 5.56537C0.132688 6.33312 -3.12445e-05 7.15103 5.51734e-09 8.00006C-3.12445e-05 8.84912 0.132719 9.66709 0.377781 10.4348L8 10.7827L15.6222 10.4349C15.8673 9.66712 16 8.84912 16 8.00012C16 7.15106 15.8673 6.33312 15.6222 5.56534L8 5.21753L0.37775 5.56537Z" fill="#F0F0F0"/>
<path d="M15.6225 5.56534L8.00024 5.21753L0.377992 5.56534C0.305367 5.79297 0.242836 6.02506 0.19043 6.261H15.8099C15.7576 6.02503 15.6951 5.7929 15.6225 5.56534Z" fill="#D80027"/>
<path d="M0.19043 9.7395C0.242773 9.97544 0.305305 10.2075 0.37793 10.4351L0.37868 10.4352L8.00012 10.783L15.6223 10.4352C15.695 10.2075 15.7575 9.97544 15.8099 9.7395H0.19043V9.7395Z" fill="#D80027"/>
<path d="M8.00012 16.0005C11.5694 16.0005 14.5922 13.6629 15.6223 10.4353H0.37793C1.40809 13.6629 4.43096 16.0005 8.00012 16.0005Z" fill="#6DA544"/>
<path d="M8.00015 -0.000488281C4.43096 -0.000457031 1.40815 2.33714 0.37793 5.56473L15.6223 5.56476C14.5922 2.33711 11.5694 -0.000519531 8.00015 -0.000488281Z" fill="#338AF3"/>
<path d="M3.65519 3.30445C3.65519 2.55516 4.18178 1.92923 4.885 1.77566C4.77694 1.75204 4.66478 1.73926 4.54959 1.73926C3.68516 1.73926 2.98438 2.44001 2.98438 3.30448C2.98438 4.16895 3.68509 4.8697 4.54959 4.8697C4.66478 4.8697 4.7769 4.85688 4.885 4.83329C4.18181 4.67967 3.65519 4.05373 3.65519 3.30445Z" fill="#F0F0F0"/>
<path d="M5.81021 4.01514L5.91614 4.34123H6.25902L5.98164 4.54279L6.08758 4.86889L5.81021 4.66736L5.53277 4.86889L5.63874 4.54279L5.36133 4.34123H5.7042L5.81021 4.01514Z" fill="#F0F0F0"/>
<path d="M6.90487 4.01514L7.01084 4.34123H7.35371L7.0763 4.54279L7.18227 4.86889L6.90487 4.66736L6.62746 4.86889L6.73343 4.54279L6.45605 4.34123H6.7989L6.90487 4.01514Z" fill="#F0F0F0"/>
<path d="M7.99868 4.01514L8.10462 4.34123H8.44753L8.17012 4.54279L8.27606 4.86889L7.99868 4.66736L7.72124 4.86889L7.82724 4.54279L7.5498 4.34123H7.89271L7.99868 4.01514Z" fill="#F0F0F0"/>
<path d="M9.09341 4.01514L9.19937 4.34123H9.54222L9.26484 4.54279L9.37081 4.86889L9.09341 4.66736L8.81597 4.86889L8.92197 4.54279L8.64453 4.34123H8.98741L9.09341 4.01514Z" fill="#F0F0F0"/>
<path d="M10.1881 4.01514L10.294 4.34123H10.6369L10.3595 4.54279L10.4655 4.86889L10.1881 4.66736L9.91066 4.86889L10.0166 4.54279L9.73926 4.34123H10.0821L10.1881 4.01514Z" fill="#F0F0F0"/>
<path d="M6.90487 2.87671L7.01084 3.20277H7.35371L7.0763 3.40437L7.18227 3.73043L6.90487 3.5289L6.62746 3.73043L6.73343 3.40437L6.45605 3.20277H6.7989L6.90487 2.87671Z" fill="#F0F0F0"/>
<path d="M7.99868 2.87671L8.10462 3.20277H8.44753L8.17012 3.40437L8.27606 3.73043L7.99868 3.5289L7.72124 3.73043L7.82724 3.40437L7.5498 3.20277H7.89271L7.99868 2.87671Z" fill="#F0F0F0"/>
<path d="M9.09341 2.87671L9.19937 3.20277H9.54222L9.26484 3.40437L9.37081 3.73043L9.09341 3.5289L8.81597 3.73043L8.92197 3.40437L8.64453 3.20277H8.98741L9.09341 2.87671Z" fill="#F0F0F0"/>
<path d="M10.1881 2.87671L10.294 3.20277H10.6369L10.3595 3.40437L10.4655 3.73043L10.1881 3.5289L9.91066 3.73043L10.0166 3.40437L9.73926 3.20277H10.0821L10.1881 2.87671Z" fill="#F0F0F0"/>
<path d="M7.99868 1.73877L8.10462 2.06489H8.44753L8.17012 2.26643L8.27606 2.59255L7.99868 2.39102L7.72124 2.59255L7.82724 2.26643L7.5498 2.06489H7.89271L7.99868 1.73877Z" fill="#F0F0F0"/>
<path d="M9.09341 1.73877L9.19937 2.06489H9.54222L9.26484 2.26643L9.37081 2.59255L9.09341 2.39102L8.81597 2.59255L8.92197 2.26643L8.64453 2.06489H8.98741L9.09341 1.73877Z" fill="#F0F0F0"/>
<path d="M10.1881 1.73877L10.294 2.06489H10.6369L10.3595 2.26643L10.4655 2.59255L10.1881 2.39102L9.91066 2.59255L10.0166 2.26643L9.73926 2.06489H10.0821L10.1881 1.73877Z" fill="#F0F0F0"/>
</g>
<defs>
<clipPath id="clip0_1_2724">
<rect width="16" height="16" fill="white"/>
</clipPath>
</defs>
</svg>
