<svg width="135" height="23" viewBox="0 0 135 23" fill="none" xmlns="http://www.w3.org/2000/svg">
<g id="Platform logo 1" clip-path="url(#clip0_722_5259)">
<path id="Vector" d="M9.82155 3.69914C8.85445 3.27687 7.74837 3.06854 6.5033 3.06854H0V19.9315H3.2198V13.693H6.42802C7.80628 13.693 8.98185 13.4847 9.94895 13.0737C10.9161 12.6627 11.6515 12.0602 12.1611 11.272C12.6707 10.4837 12.9255 9.52656 12.9255 8.39486C12.9255 7.26316 12.6534 6.32289 12.1032 5.52901C11.5531 4.73513 10.7944 4.12705 9.82734 3.70477L9.82155 3.69914ZM8.83129 10.4049C8.25219 10.8215 7.44724 11.0299 6.41644 11.0299H3.2198V5.79363H6.4396C7.42986 5.79363 8.22323 6.01885 8.81392 6.46365C9.4046 6.90844 9.69994 7.57283 9.69994 8.45679C9.69994 9.34076 9.41039 9.98825 8.83129 10.4105V10.4049Z" fill="#292D3F"/>
<path id="Vector_2" d="M19.116 3.06854H15.8962V19.9315H26.4764V17.0656H19.116V3.06854Z" fill="#292D3F"/>
<path id="Vector_3" d="M34.1785 3.06854L27.5247 19.9315H31.0572L32.4818 16.1141H39.4541L40.9308 19.9315H44.5618L37.7747 3.06854H34.1843H34.1785ZM33.2751 13.4509L35.9158 6.61004L38.6434 13.4509H33.2809H33.2751Z" fill="#292D3F"/>
<path id="Vector_4" d="M45.3667 5.93439H50.1617V19.9315H53.3988V5.93439H58.188V3.06854H45.3667V5.93439Z" fill="#292D3F"/>
<path id="Vector_5" d="M60.9792 19.9315H64.199V13.1018H71.1714V10.3317H64.199V5.93439H71.93V3.06854H60.9792V19.9315Z" fill="#292D3F"/>
<path id="Vector_6" d="M110.661 11.8969C111.286 11.4803 111.772 10.951 112.131 10.3204C112.485 9.68421 112.664 8.95226 112.664 8.11334C112.664 7.07173 112.415 6.17087 111.923 5.4164C111.425 4.66193 110.724 4.08201 109.815 3.67662C108.906 3.27124 107.834 3.06854 106.607 3.06854H99.895V19.9315H103.115V13.3327H105.194L109.676 19.9315H113.539L108.495 12.7753C109.311 12.6064 110.035 12.3136 110.655 11.8969H110.661ZM103.109 10.7652V5.69229H106.294C107.319 5.69229 108.095 5.91187 108.622 6.35667C109.149 6.79584 109.415 7.44333 109.415 8.28225C109.415 9.12117 109.126 9.71236 108.547 10.129C107.968 10.5513 107.163 10.7596 106.132 10.7596H103.109V10.7652Z" fill="#292D3F"/>
<path id="Vector_7" d="M131.931 3.06854L125.92 13.0568L119.648 3.06854H116.544V19.9315H119.492L119.445 8.22032L124.646 16.4519H126.91L131.913 8.33856L131.867 19.9315H135V3.06854H131.931Z" fill="#292D3F"/>
<path id="Vector_8" d="M89.6102 18.9236C89.7665 18.6702 89.9113 18.4 90.0503 18.1241C88.6141 18.4732 87.0679 18.659 85.4696 18.659C83.8713 18.659 82.3193 18.4732 80.8889 18.1241C81.0279 18.4 81.1727 18.6646 81.329 18.9236C82.4641 20.7872 83.935 21.812 85.4754 21.812C87.0158 21.812 88.4809 20.7872 89.6218 18.9236H89.6102Z" fill="#292D3F"/>
<path id="Vector_9" d="M93.1021 15.5285C95.0189 14.425 96.0729 12.9949 96.0729 11.4972C96.0729 9.99953 95.0189 8.57505 93.1021 7.46587C92.8415 7.31385 92.5635 7.17309 92.2798 7.03796C92.6388 8.43429 92.8299 9.9376 92.8299 11.4916C92.8299 13.0456 92.6388 14.5545 92.2798 15.9452C92.5635 15.8101 92.8357 15.6693 93.1021 15.5173V15.5285Z" fill="#292D3F"/>
<path id="Vector_10" d="M86.5581 0C88.168 0.365973 89.6447 1.53709 90.7797 3.40073C91.1504 4.00881 91.4689 4.68446 91.7468 5.39388C92.4765 5.66414 93.1656 5.97381 93.7969 6.33415C95.7195 7.4377 96.9182 8.87344 97.2946 10.4387C96.7734 4.90404 92.2507 0.506732 86.5581 0Z" fill="#292D3F"/>
<path id="Vector_11" d="M85.4637 1.18799C83.9291 1.18799 82.4581 2.21271 81.3173 4.07636C81.161 4.32973 81.0162 4.59998 80.8772 4.87587C82.3134 4.52679 83.8596 4.34099 85.4579 4.34099C87.0562 4.34099 88.6082 4.52679 90.0386 4.87587C89.8996 4.59998 89.7548 4.33536 89.5985 4.07636C88.4634 2.21271 86.9925 1.18799 85.4521 1.18799H85.4637Z" fill="#292D3F"/>
<path id="Vector_12" d="M80.2461 6.42985C79.7307 7.96131 79.4585 9.69546 79.4585 11.5028C79.4585 13.3101 79.7365 15.0443 80.2461 16.5758C81.8212 17.0769 83.6049 17.3415 85.4638 17.3415C87.3227 17.3415 89.1063 17.0712 90.6815 16.5758C91.1969 15.0443 91.469 13.3101 91.469 11.5028C91.469 9.69546 91.1911 7.96131 90.6815 6.42985C89.1063 5.92875 87.3227 5.66412 85.4638 5.66412C83.6049 5.66412 81.8212 5.93438 80.2461 6.42985Z" fill="#292D3F"/>
<path id="Vector_13" d="M80.1474 19.5993C79.7768 18.9912 79.4583 18.3156 79.1804 17.6061C78.4507 17.3359 77.7616 17.0262 77.1303 16.6659C75.2077 15.5623 74.009 14.1266 73.6326 12.5613C74.1538 18.096 78.6765 22.4933 84.3691 23C82.7592 22.634 81.2825 21.4629 80.1474 19.5993Z" fill="#292D3F"/>
<path id="Vector_14" d="M77.1362 6.33415C77.7616 5.97381 78.4565 5.66414 79.1862 5.39388C79.4642 4.68446 79.7827 4.01444 80.1533 3.40073C81.2884 1.53146 82.7651 0.365973 84.375 0C78.6824 0.506732 74.1596 4.90404 73.6384 10.4387C74.0148 8.87344 75.2194 7.4377 77.1362 6.33415Z" fill="#292D3F"/>
<path id="Vector_15" d="M93.7969 16.6659C93.1714 17.0262 92.4765 17.3359 91.7468 17.6061C91.4689 18.3156 91.1504 18.9856 90.7797 19.5993C89.6447 21.4686 88.168 22.634 86.5581 23C92.2507 22.4933 96.7734 18.096 97.2946 12.5613C96.9182 14.1266 95.7137 15.5623 93.7969 16.6659Z" fill="#292D3F"/>
<path id="Vector_16" d="M77.8311 7.47146C75.9143 8.57501 74.8604 10.0051 74.8604 11.5028C74.8604 13.0005 75.9143 14.4249 77.8311 15.5341C78.0917 15.6861 78.3697 15.8269 78.6535 15.962C78.2944 14.5657 78.1033 13.0624 78.1033 11.5084C78.1033 9.95444 78.2944 8.44551 78.6535 7.05481C78.3697 7.18994 78.0975 7.3307 77.8311 7.48272V7.47146Z" fill="#292D3F"/>
</g>
<defs>
<clipPath id="clip0_722_5259">
<rect width="135" height="23" fill="white"/>
</clipPath>
</defs>
</svg>
