<svg width="122" height="44" viewBox="0 0 122 44" fill="none" xmlns="http://www.w3.org/2000/svg">
<g clip-path="url(#clip0_1_2748)">
<mask id="mask0_1_2748" style="mask-type:luminance" maskUnits="userSpaceOnUse" x="0" y="7" width="122" height="31">
<path d="M122 7H0V37.3713H122V7Z" fill="white"/>
</mask>
<g mask="url(#mask0_1_2748)">
<path d="M17.9043 9.52905V23.731L10.7529 16.63L13.2095 14.1907L17.9043 9.52905Z" fill="#00264B"/>
<path d="M6.37346 18.2552L2.87538 21.7286C2.82326 21.7805 2.7568 21.8159 2.68443 21.8302C2.61205 21.8446 2.53701 21.8373 2.4688 21.8093C2.40059 21.7813 2.34227 21.7339 2.30124 21.6729C2.26021 21.612 2.23829 21.5404 2.23828 21.4671V14.518C2.23889 14.4449 2.26122 14.3737 2.30247 14.3133C2.34374 14.2528 2.40208 14.2058 2.47017 14.1782C2.53825 14.1505 2.61306 14.1435 2.68515 14.158C2.75725 14.1724 2.82343 14.2077 2.87538 14.2595L6.3742 17.7337C6.44335 17.8031 6.48207 17.8969 6.48193 17.9946C6.48178 18.0923 6.4428 18.1859 6.37346 18.2552Z" fill="#00264B"/>
<path d="M14.9206 26.3703V37.0011C14.9206 37.0992 14.8813 37.1935 14.8113 37.2629C14.7414 37.3324 14.6465 37.3714 14.5475 37.3714H2.61129C2.51236 37.3714 2.41748 37.3324 2.34753 37.2629C2.27758 37.1935 2.23828 37.0992 2.23828 37.0011V25.8673C2.2383 25.7693 2.27747 25.6753 2.3472 25.6058L8.06169 19.9316C8.09634 19.8971 8.13751 19.8698 8.18282 19.8511C8.22814 19.8324 8.27673 19.8228 8.32579 19.8228C8.37485 19.8228 8.42343 19.8324 8.46874 19.8511C8.51406 19.8698 8.55523 19.8971 8.58987 19.9316L14.8116 26.1118C14.8806 26.1804 14.9198 26.2733 14.9206 26.3703Z" fill="#00264B"/>
<path d="M16.8117 8.48145L14.8832 10.3971L12.1431 13.1186L12.1177 13.1431L9.66109 15.5824L2.50977 8.48145H16.8117Z" fill="#00264B"/>
<path d="M9.1708 18.2011C9.3107 18.0622 9.50041 17.9842 9.69823 17.9842C9.89606 17.9842 10.0858 18.0622 10.2256 18.2011L12.1549 20.1167L15.5761 23.5139L18.1231 26.0428C18.2587 26.1779 18.4419 26.2555 18.634 26.2591H18.6423C18.7387 26.2593 18.8343 26.2405 18.9233 26.2036C19.0123 26.1667 19.093 26.1126 19.1607 26.0443L19.1726 26.0376L19.1823 26.028C19.2511 25.9608 19.3057 25.8807 19.3428 25.7922C19.3799 25.7038 19.399 25.609 19.3987 25.5132C19.3987 25.5132 19.3987 25.5072 19.3987 25.505C19.3987 25.5028 19.3987 25.4976 19.3987 25.4939V7.74077C19.3987 7.6433 19.3794 7.54679 19.3417 7.45677C19.3041 7.36676 19.2489 7.285 19.1794 7.21618C19.1099 7.14737 19.0274 7.09285 18.9366 7.05575C18.8459 7.01866 18.7486 6.99971 18.6505 7H0.746017C0.719907 7 0.694542 7 0.671416 7.00371C0.648289 7.00741 0.633369 7.00889 0.613972 7.0126L0.596814 7.01482C0.526726 7.02995 0.459157 7.05489 0.396135 7.08889C0.375314 7.09984 0.355138 7.11196 0.335708 7.12519C0.320041 7.13556 0.304375 7.14742 0.289455 7.15927L0.278264 7.16742L0.248424 7.19482L0.225297 7.21557L0.208139 7.23408C0.197695 7.2452 0.186505 7.25631 0.176806 7.26816L0.1686 7.27927C0.156664 7.29409 0.144727 7.30964 0.134283 7.3252C0.0771124 7.40564 0.036545 7.49653 0.0149203 7.59261V7.60891C0.00895221 7.62743 0.00596814 7.64595 0.00373009 7.66669C0.00149203 7.68743 0.00373009 7.71632 0.00373009 7.74077H0C4.22525e-05 7.93721 0.078668 8.1256 0.218583 8.26448L0.43642 8.48153L2.23806 10.2697L2.76549 10.7935L6.18673 14.1906L8.12189 16.1166C8.25859 16.255 8.33515 16.4412 8.33515 16.6351C8.33515 16.829 8.25859 17.0152 8.12189 17.1536L6.95363 18.307L6.19195 19.0649L6.18747 19.0693L3.42124 21.8153L0.964601 24.2546C0.893348 24.3229 0.836515 24.4047 0.797417 24.495C0.758319 24.5855 0.73774 24.6827 0.736879 24.781C0.736018 24.8794 0.754893 24.9769 0.792404 25.0679C0.829914 25.159 0.885308 25.2417 0.955354 25.3113C1.0254 25.3808 1.1087 25.4358 1.20037 25.473C1.29206 25.5102 1.39029 25.529 1.48935 25.5282C1.58841 25.5273 1.6863 25.5069 1.77732 25.468C1.86834 25.4292 1.95065 25.3728 2.01947 25.302L2.23806 25.085L7.2304 20.1271C7.23798 20.1203 7.2452 20.1132 7.25204 20.1056L8.0085 19.3545L9.1708 18.2011ZM7.2043 13.1432L3.78305 9.74602C3.67871 9.64237 3.60767 9.51033 3.57892 9.36658C3.55017 9.22285 3.56501 9.07386 3.62156 8.93849C3.6781 8.80312 3.7738 8.68746 3.89657 8.60611C4.01934 8.52477 4.16365 8.48141 4.31124 8.48153H15.0114C15.1589 8.48156 15.3031 8.52502 15.4258 8.60643C15.5484 8.68782 15.644 8.8035 15.7004 8.93884C15.7569 9.07417 15.7717 9.22309 15.7429 9.36677C15.7141 9.51044 15.6431 9.64242 15.5388 9.74602L14.883 10.3971L12.1175 13.1432L11.3499 13.9047L10.1809 15.0654C10.0417 15.1998 9.85516 15.275 9.66093 15.275C9.46674 15.275 9.2802 15.1998 9.14095 15.0654L7.2043 13.1432ZM13.2098 19.0693L11.2805 17.1536C11.1406 17.0147 11.0621 16.8264 11.0621 16.6299C11.0621 16.4335 11.1406 16.2451 11.2805 16.1062L13.2098 14.1906L16.6309 10.7935C16.7353 10.6899 16.8682 10.6194 17.0129 10.5908C17.1576 10.5622 17.3076 10.5769 17.4439 10.6329C17.5802 10.689 17.6966 10.7839 17.7786 10.9057C17.8606 11.0275 17.9044 11.1707 17.9044 11.3172V21.9427C17.9044 22.0892 17.8606 22.2324 17.7786 22.3542C17.6966 22.4759 17.5802 22.5709 17.4439 22.6269C17.3076 22.683 17.1576 22.6977 17.0129 22.669C16.8682 22.6405 16.7353 22.57 16.6309 22.4664L13.2098 19.0693Z" fill="#E87525"/>
<path d="M28.4238 9.96313H33.7527C35.4155 9.96313 37.3201 11.1817 37.3201 13.8062C37.3201 16.4307 35.4155 17.6671 33.7527 17.6671H31.2587V21.0746H28.4238V9.96313ZM33.2409 14.9263C33.8324 14.9263 34.4755 14.5818 34.4755 13.8062C34.4755 13.0306 33.8698 12.704 33.273 12.704H31.2587V14.9263H33.2409Z" fill="#00264B"/>
<path d="M38.8672 9.96313H44.3482C45.9976 9.96313 47.8873 11.1765 47.8873 13.7921C47.8873 15.587 46.9921 16.7322 45.894 17.2797L48.1447 21.0746H44.8928L42.8577 17.6671H41.7021V21.0746H38.8672V9.96313ZM43.9111 14.9263C44.5079 14.9263 45.1203 14.5818 45.1203 13.8062C45.1203 13.0306 44.5064 12.704 43.9111 12.704H41.7021V14.9263H43.9111Z" fill="#00264B"/>
<path d="M49.6846 15.5189C49.6846 12.2988 52.036 9.96313 55.3722 9.96313C58.7084 9.96313 61.024 12.2988 61.024 15.5189C61.024 18.739 58.7114 21.0746 55.3714 21.0746C52.0316 21.0746 49.6846 18.739 49.6846 15.5189ZM58.1727 15.5189C58.1727 13.884 57.0664 12.7158 55.3722 12.7158C53.678 12.7158 52.5373 13.884 52.5373 15.5189C52.5373 17.1538 53.678 18.3219 55.3722 18.3219C57.0664 18.3219 58.1727 17.1538 58.1727 15.5189Z" fill="#00264B"/>
<path d="M62.5166 9.96313H70.3498V12.6299H65.3514V14.63H70.0513V17.2967H65.3514V21.0746H62.5166V9.96313Z" fill="#00264B"/>
<path d="M71.8418 9.96313H74.6766V21.0746H71.8418V9.96313Z" fill="#00264B"/>
<path d="M28.4238 30.3554V23.2966H31.2587V30.0376C31.2587 31.371 32.0935 31.7095 32.8254 31.7095C33.5572 31.7095 34.392 31.371 34.392 30.0376V23.2966H37.2269V30.3554C37.2269 32.4821 35.6856 34.4081 32.8254 34.4081C29.9651 34.4081 28.4238 32.4821 28.4238 30.3554Z" fill="#00264B"/>
<path d="M38.7188 23.2966H41.4955L45.2092 29.365V23.2966H47.9694V34.4081H45.1927L41.4791 28.3568V34.4081H38.7188V23.2966Z" fill="#00264B"/>
<path d="M49.4609 23.2966H52.2958V34.4081H49.4609V23.2966Z" fill="#00264B"/>
<path d="M53.7773 23.2966H56.7427L59.13 29.6731L61.5381 23.2966H64.5036L60.2513 34.4081H58.0304L53.7773 23.2966Z" fill="#00264B"/>
<path d="M66.0225 23.2966H73.7064V25.8894H68.7827V27.5931H73.3334V30.1857H68.7827V31.8155H73.7064V34.4081H66.0225V23.2966Z" fill="#00264B"/>
<path d="M75.1982 23.2966H80.5345C82.1407 23.2966 83.9812 24.51 83.9812 27.1257C83.9812 28.9205 83.1113 30.0658 82.0415 30.6132L84.2318 34.4081H81.0239L79.0671 31.0007H77.9586V34.4081H75.1982V23.2966ZM80.0817 28.2598C80.6547 28.2598 81.2448 27.9153 81.2448 27.1398C81.2448 26.3641 80.6547 26.0375 80.0817 26.0375H77.9586V28.2598H80.0817Z" fill="#00264B"/>
<path d="M85.3242 31.7299L87.5719 30.1469C87.8271 30.5098 89.1386 31.6966 90.5687 31.6966C91.5221 31.6966 91.6243 31.3669 91.6243 31.0706C91.6243 30.5261 90.1599 30.2624 89.428 29.9824C88.6962 29.7024 85.8009 29.1083 85.8009 26.6689C85.8009 24.1955 88.0658 23.3052 90.2449 23.3052C92.424 23.3052 94.2637 24.5912 94.7069 25.7126L92.5098 27.149C92.2203 26.786 91.167 26.0282 89.8876 26.0282C89.3086 26.0282 89.0363 26.226 89.0363 26.5223C89.0363 27.1326 90.4329 27.3801 91.1648 27.6601C91.8966 27.9401 94.7747 28.6824 94.7747 30.9409C94.7747 33.2321 92.9015 34.4188 90.2449 34.4188C87.5719 34.4166 85.8666 32.9499 85.3242 31.7299Z" fill="#00264B"/>
<path d="M96.6094 23.2966H99.4438V34.4081H96.6094V23.2966Z" fill="#00264B"/>
<path d="M104.069 25.8894H100.936V23.2966H110.037V25.8894H106.904V34.4081H104.069V25.8894Z" fill="#00264B"/>
<path d="M115.409 29.8265L111.561 23.2966H114.723L116.78 26.8523L118.841 23.2966H122.002L118.169 29.7925V34.4081H115.409V29.8265Z" fill="#00264B"/>
</g>
</g>
<defs>
<clipPath id="clip0_1_2748">
<rect width="122" height="30.3713" fill="white" transform="translate(0 7)"/>
</clipPath>
</defs>
</svg>
