<svg width="100" height="101" viewBox="0 0 100 101" fill="none" xmlns="http://www.w3.org/2000/svg">
<g filter="url(#filter0_d_1_2278)">
<rect x="10" y="2.5" width="80" height="80" rx="8" fill="#E87525"/>
</g>
<path d="M49.6643 39.8887C51.9658 39.8887 53.8306 38.0239 53.8306 35.7224C53.8306 33.4209 51.9658 31.5562 49.6643 31.5562C47.3628 31.5562 45.498 33.4209 45.498 35.7224C45.498 38.0239 47.3628 39.8887 49.6643 39.8887ZM49.6643 34.3337C50.4319 34.3337 51.053 34.9548 51.053 35.7224C51.053 36.49 50.4319 37.1111 49.6643 37.1111C48.8967 37.1111 48.2756 36.49 48.2756 35.7224C48.2756 34.9548 48.8967 34.3337 49.6643 34.3337Z" fill="white"/>
<path d="M47.8568 51.8772L48.4219 53.0074C48.9338 54.0311 50.3947 54.0309 50.9063 53.0071L52.1034 50.6115C53.3055 48.2093 54.4429 46.3137 57.0354 42.2387L57.1028 42.1327C57.4838 41.5339 57.6679 41.244 57.8867 40.8984C58.8603 39.3606 59.3853 37.5789 59.3853 35.7213C59.3853 29.9256 54.35 25.402 48.5279 26.0645C44.1958 26.5587 40.6388 30.0248 40.0393 34.3401C39.6805 36.9234 40.339 39.4434 41.8312 41.4694C43.8384 44.1902 45.384 46.9334 47.8568 51.8772ZM42.7904 34.7222C43.2154 31.6633 45.7693 29.1747 48.8424 28.8242C53.0122 28.3496 56.6078 31.5798 56.6078 35.7213C56.6078 37.0487 56.2345 38.3158 55.54 39.4128C55.3226 39.7562 55.1394 40.0447 54.7594 40.6418L54.692 40.7479C52.0785 44.8561 50.9044 46.8099 49.6613 49.2856C47.5003 45.0306 45.9981 42.4393 44.0671 39.8215C43.001 38.3739 42.5323 36.5805 42.7904 34.7222Z" fill="white"/>
<path d="M58.3152 46.3784C57.5689 46.2014 56.8205 46.6629 56.6435 47.4092C56.4665 48.1555 56.928 48.904 57.6743 49.0809C61.3987 49.9641 63.5525 51.3772 63.5525 52.3861C63.5525 54.3051 57.3716 56.5524 49.665 56.5524C41.9576 56.5524 35.7775 54.3053 35.7775 52.3861C35.7775 51.3766 37.9292 49.9639 41.6517 49.0809C42.398 48.9039 42.8594 48.1554 42.6824 47.4091C42.5054 46.6629 41.7569 46.2014 41.0107 46.3784C36.138 47.5342 33 49.5945 33 52.3862C33 56.6048 40.495 59.33 49.665 59.33C58.8342 59.33 66.33 56.6047 66.33 52.3862C66.33 49.5945 63.1901 47.5344 58.3152 46.3784Z" fill="white"/>
<defs>
<filter id="filter0_d_1_2278" x="0" y="0.5" width="100" height="100" filterUnits="userSpaceOnUse" color-interpolation-filters="sRGB">
<feFlood flood-opacity="0" result="BackgroundImageFix"/>
<feColorMatrix in="SourceAlpha" type="matrix" values="0 0 0 0 0 0 0 0 0 0 0 0 0 0 0 0 0 0 127 0" result="hardAlpha"/>
<feMorphology radius="8" operator="erode" in="SourceAlpha" result="effect1_dropShadow_1_2278"/>
<feOffset dy="8"/>
<feGaussianBlur stdDeviation="9"/>
<feColorMatrix type="matrix" values="0 0 0 0 0.909804 0 0 0 0 0.458824 0 0 0 0 0.145098 0 0 0 0.9 0"/>
<feBlend mode="normal" in2="BackgroundImageFix" result="effect1_dropShadow_1_2278"/>
<feBlend mode="normal" in="SourceGraphic" in2="effect1_dropShadow_1_2278" result="shape"/>
</filter>
</defs>
</svg>
