<svg width="100" height="101" viewBox="0 0 100 101" fill="none" xmlns="http://www.w3.org/2000/svg">
<g filter="url(#filter0_d_1_2271)">
<rect x="10" y="2.5" width="80" height="80" rx="8" fill="#E87525"/>
</g>
<path d="M63.172 36.81C63.0903 36.6334 62.9887 36.465 62.8453 36.3217L52.8453 26.3217C52.702 26.1784 52.5337 26.0767 52.357 25.995C52.307 25.9717 52.2537 25.9584 52.2003 25.94C52.0603 25.8934 51.917 25.8634 51.7687 25.855C51.7337 25.8517 51.702 25.8334 51.667 25.8334H40.0003C38.162 25.8334 36.667 27.3284 36.667 29.1667V55.8334C36.667 57.6717 38.162 59.1667 40.0003 59.1667H60.0003C61.8387 59.1667 63.3337 57.6717 63.3337 55.8334V37.5C63.3337 37.465 63.3153 37.4334 63.312 37.3967C63.3037 37.2484 63.2753 37.105 63.227 36.965C63.2103 36.9117 63.1953 36.86 63.172 36.81ZM57.6437 35.8334H53.3337V31.5234L57.6437 35.8334ZM40.0003 55.8334V29.1667H50.0003V37.5C50.0003 38.4217 50.7453 39.1667 51.667 39.1667H60.0003L60.0037 55.8334H40.0003Z" fill="white"/>
<path d="M43.333 42.5H56.6663V45.8334H43.333V42.5ZM43.333 49.1667H56.6663V52.5H43.333V49.1667ZM43.333 35.8334H46.6663V39.1667H43.333V35.8334Z" fill="white"/>
<defs>
<filter id="filter0_d_1_2271" x="0" y="0.5" width="100" height="100" filterUnits="userSpaceOnUse" color-interpolation-filters="sRGB">
<feFlood flood-opacity="0" result="BackgroundImageFix"/>
<feColorMatrix in="SourceAlpha" type="matrix" values="0 0 0 0 0 0 0 0 0 0 0 0 0 0 0 0 0 0 127 0" result="hardAlpha"/>
<feMorphology radius="8" operator="erode" in="SourceAlpha" result="effect1_dropShadow_1_2271"/>
<feOffset dy="8"/>
<feGaussianBlur stdDeviation="9"/>
<feColorMatrix type="matrix" values="0 0 0 0 0.909804 0 0 0 0 0.458824 0 0 0 0 0.145098 0 0 0 0.9 0"/>
<feBlend mode="normal" in2="BackgroundImageFix" result="effect1_dropShadow_1_2271"/>
<feBlend mode="normal" in="SourceGraphic" in2="effect1_dropShadow_1_2271" result="shape"/>
</filter>
</defs>
</svg>
