<svg width="100" height="101" viewBox="0 0 100 101" fill="none" xmlns="http://www.w3.org/2000/svg">
<g filter="url(#filter0_d_1_2292)">
<rect x="10" y="2.5" width="80" height="80" rx="8" fill="#E87525"/>
</g>
<path d="M52.3014 47.8493C51.4863 47.2806 50.6153 46.8173 49.7043 46.4633C50.9162 45.3618 51.7201 43.8188 51.8599 42.0915C53.6976 40.3009 56.1066 39.3192 58.6889 39.3192C60.7049 39.3192 62.6405 39.9262 64.287 41.0745C64.877 41.486 65.6883 41.3415 66.0998 40.7515C66.511 40.1617 66.3665 39.3502 65.7768 38.939C64.9617 38.3703 64.0904 37.9072 63.1794 37.5529C64.5166 36.3376 65.3574 34.585 65.3574 32.64C65.3574 28.9786 62.3788 26 58.7174 26C55.0562 26 52.0776 28.9786 52.0776 32.64C52.0776 34.5772 52.9115 36.3233 54.2396 37.5382C54.0578 37.6081 53.8769 37.6821 53.6979 37.761C52.8831 38.1196 52.1171 38.5606 51.4047 39.0783C50.4223 36.6376 48.0304 34.9103 45.2423 34.9103C41.5811 34.9103 38.6023 37.8889 38.6023 41.5501C38.6023 43.4819 39.4316 45.2232 40.7526 46.4376C37.2208 47.7608 34.3572 50.6028 33.1914 54.2274C32.8048 55.4293 33.0096 56.7039 33.7532 57.7245C34.4968 58.7448 35.6474 59.33 36.9098 59.33H48.2369C48.9559 59.33 49.5388 58.7471 49.5388 58.0279C49.5388 57.3089 48.9559 56.726 48.2369 56.726H36.9098C36.4889 56.726 36.1054 56.531 35.8574 56.1907C35.6095 55.8504 35.5413 55.4254 35.67 55.0246C36.9569 51.0237 40.8815 48.2295 45.2138 48.2295C47.2296 48.2295 49.1654 48.8366 50.8119 49.9848C51.4017 50.3963 52.2132 50.2516 52.6247 49.6618C53.0359 49.0721 52.8915 48.2605 52.3014 47.8493ZM58.7174 28.604C60.9429 28.604 62.7534 30.4145 62.7534 32.64C62.7534 34.8653 60.9429 36.676 58.7174 36.676C56.4921 36.676 54.6813 34.8653 54.6813 32.64C54.6813 30.4145 56.4921 28.604 58.7174 28.604ZM45.2423 37.514C47.4679 37.514 49.2783 39.3248 49.2783 41.5501C49.2783 43.7756 47.4679 45.5861 45.2423 45.5861C43.0168 45.5861 41.2063 43.7756 41.2063 41.5501C41.2063 39.3248 43.0168 37.514 45.2423 37.514ZM66.334 53.1457C66.334 53.8647 65.7511 54.4476 65.0319 54.4476H61.4516V58.0279C61.4516 58.7471 60.8687 59.33 60.1497 59.33C59.4305 59.33 58.8476 58.7471 58.8476 58.0279V54.4476H55.2673C54.5483 54.4476 53.9654 53.8647 53.9654 53.1457C53.9654 52.4265 54.5483 51.8436 55.2673 51.8436H58.8476V48.2633C58.8476 47.5444 59.4305 46.9615 60.1497 46.9615C60.8687 46.9615 61.4516 47.5444 61.4516 48.2633V51.8436H65.0319C65.7511 51.8436 66.334 52.4265 66.334 53.1457Z" fill="white"/>
<defs>
<filter id="filter0_d_1_2292" x="0" y="0.5" width="100" height="100" filterUnits="userSpaceOnUse" color-interpolation-filters="sRGB">
<feFlood flood-opacity="0" result="BackgroundImageFix"/>
<feColorMatrix in="SourceAlpha" type="matrix" values="0 0 0 0 0 0 0 0 0 0 0 0 0 0 0 0 0 0 127 0" result="hardAlpha"/>
<feMorphology radius="8" operator="erode" in="SourceAlpha" result="effect1_dropShadow_1_2292"/>
<feOffset dy="8"/>
<feGaussianBlur stdDeviation="9"/>
<feColorMatrix type="matrix" values="0 0 0 0 0.909804 0 0 0 0 0.458824 0 0 0 0 0.145098 0 0 0 0.9 0"/>
<feBlend mode="normal" in2="BackgroundImageFix" result="effect1_dropShadow_1_2292"/>
<feBlend mode="normal" in="SourceGraphic" in2="effect1_dropShadow_1_2292" result="shape"/>
</filter>
</defs>
</svg>
