<svg width="100" height="101" viewBox="0 0 100 101" fill="none" xmlns="http://www.w3.org/2000/svg">
<g filter="url(#filter0_d_1_2306)">
<rect x="10" y="2.5" width="80" height="80" rx="8" fill="#E87525"/>
</g>
<path d="M38.3335 37.4984C38.3335 40.6684 39.6085 43.5434 41.6668 45.6484V57.5C41.6668 58.0784 41.9668 58.6134 42.4568 58.9184C42.9485 59.225 43.5635 59.2484 44.0785 58.9917L50.0002 56.03L55.9218 58.99C56.1568 59.1084 56.4118 59.1667 56.6668 59.1667C56.9718 59.1667 57.2752 59.0834 57.5418 58.9184C58.0335 58.6134 58.3335 58.0784 58.3335 57.5V45.65C60.3918 43.545 61.6668 40.67 61.6668 37.4984C61.6668 31.0667 56.4335 25.8334 50.0002 25.8334C43.5668 25.8334 38.3335 31.0667 38.3335 37.4984ZM50.7452 52.675C50.2768 52.44 49.7235 52.44 49.2535 52.675L45.0002 54.8034V48.025C46.5185 48.7484 48.2102 49.1667 50.0002 49.1667C51.7902 49.1667 53.4818 48.75 55.0002 48.025V54.8017L50.7452 52.675ZM50.0002 29.1667C54.5935 29.1667 58.3335 32.9034 58.3335 37.4984C58.3335 42.095 54.5952 45.8334 50.0002 45.8334C45.4052 45.8334 41.6668 42.095 41.6668 37.4984C41.6668 32.9034 45.4052 29.1667 50.0002 29.1667Z" fill="white"/>
<defs>
<filter id="filter0_d_1_2306" x="0" y="0.5" width="100" height="100" filterUnits="userSpaceOnUse" color-interpolation-filters="sRGB">
<feFlood flood-opacity="0" result="BackgroundImageFix"/>
<feColorMatrix in="SourceAlpha" type="matrix" values="0 0 0 0 0 0 0 0 0 0 0 0 0 0 0 0 0 0 127 0" result="hardAlpha"/>
<feMorphology radius="8" operator="erode" in="SourceAlpha" result="effect1_dropShadow_1_2306"/>
<feOffset dy="8"/>
<feGaussianBlur stdDeviation="9"/>
<feColorMatrix type="matrix" values="0 0 0 0 0.909804 0 0 0 0 0.458824 0 0 0 0 0.145098 0 0 0 0.9 0"/>
<feBlend mode="normal" in2="BackgroundImageFix" result="effect1_dropShadow_1_2306"/>
<feBlend mode="normal" in="SourceGraphic" in2="effect1_dropShadow_1_2306" result="shape"/>
</filter>
</defs>
</svg>
