<svg width="147" height="147" viewBox="0 0 147 147" fill="none" xmlns="http://www.w3.org/2000/svg">
<path d="M85.4768 13.2714L85.4782 13.2719L85.4784 13.272L85.4863 13.2748L85.4865 13.274C95.9011 16.7495 104.958 24.0138 110.334 34.7159L110.702 35.4492L110.744 35.4376C110.848 35.6478 110.972 35.9047 111.11 36.2061C111.553 37.1719 112.148 38.5925 112.744 40.3931C113.937 43.9963 115.13 49.1071 115.13 55.1323C115.13 61.5951 113.92 67.1425 112.71 71.0736C112.105 73.0381 111.502 74.5952 111.051 75.6569C110.826 76.1876 110.64 76.5941 110.511 76.8654C110.446 77.001 110.396 77.1028 110.363 77.1693C110.346 77.2026 110.334 77.2271 110.326 77.2426L110.317 77.2591L110.316 77.2619L110.316 77.2622L110.316 77.2623L110.316 77.2625L110.306 77.2814L110.296 77.3014C106.812 84.7427 99.5443 93.9465 96.8327 97.3774L96.823 97.3897C96.4583 97.8511 96.1712 98.2145 95.9938 98.4473C90.881 105.021 85.5701 111.935 81.3674 119.72L81.3673 119.72L81.3615 119.731C79.2066 123.845 77.8336 128.137 76.1102 133.658C75.704 134.904 75.2784 135.788 74.7562 136.358C74.2785 136.88 73.6843 137.18 72.7705 137.18C71.8546 137.18 71.3401 136.981 70.9181 136.568C70.4337 136.094 69.9654 135.237 69.4284 133.65L69.3297 133.339L69.3215 133.313C67.5278 127.658 66.4726 124.332 63.9828 119.475L63.9767 119.463L63.9702 119.451C61.9344 115.731 58.1108 109.657 54.2999 104.72L53.5269 103.718L53.5132 103.735C52.0792 101.798 50.5187 99.808 48.9214 97.7707L48.9139 97.7612C43.7022 91.1139 38.0931 83.9209 34.7295 76.0471L34.7187 76.0218L34.7068 75.9977L34.7067 75.9975L34.7066 75.9974L34.7065 75.9971L34.7052 75.9945L34.6977 75.979C34.6906 75.9644 34.6795 75.9413 34.6647 75.9098C34.635 75.8469 34.5902 75.7506 34.5326 75.6223C34.4173 75.3656 34.2504 74.9808 34.049 74.4786C33.6463 73.4738 33.1061 72.0002 32.565 70.1418C31.4823 66.423 30.3999 61.1776 30.3999 55.075C30.3999 43.5733 34.7645 33.5439 40.2918 26.9979L40.5723 26.6657L40.556 26.5293C46.8607 18.961 57.7172 11.29 72.6255 11.29C76.2837 11.29 79.5084 11.7885 81.8187 12.2876C82.9727 12.537 83.8953 12.7858 84.526 12.971C84.8412 13.0636 85.0832 13.1403 85.2445 13.1931C85.3236 13.2189 85.3832 13.2391 85.4225 13.2525C85.4232 13.2528 85.424 13.2531 85.4247 13.2533L85.4768 13.2714Z" fill="#EA4335" stroke="white" stroke-width="2"/>
<path d="M70.4489 35.4928C69.8354 35.382 69.2711 35.8534 69.2711 36.4769V38.4944H61.0532C59.9487 38.4944 59.0532 39.3899 59.0532 40.4944V74.1201C59.0532 75.224 59.9477 76.1192 61.0516 76.1201L69.2711 76.1268V78.1844C69.2711 78.8074 69.8347 79.2788 70.4479 79.1686L87.1046 76.1768C87.5809 76.0913 87.9276 75.677 87.9278 75.1931L87.9462 39.4902C87.9465 39.0063 87.6002 38.5917 87.124 38.5056L70.4489 35.4928ZM72.3655 55.8537C72.992 55.8537 73.5 56.5147 73.5 57.33C73.5 58.1455 72.9921 58.8063 72.3655 58.8063C71.7388 58.8063 71.2309 58.1455 71.2309 57.33C71.2308 56.5147 71.7389 55.8537 72.3655 55.8537ZM62.087 73.0872V41.5282H69.2711V73.093L62.087 73.0872Z" fill="white"/>
</svg>
