<svg width="24" height="24" viewBox="0 0 24 24" fill="none" xmlns="http://www.w3.org/2000/svg">
<path d="M24 2.43369C20.7719 1.91121 18.3743 2.52869 16.807 4.28616C15.2398 6.04363 14.4561 8.63233 14.4561 12.0523V21.7421H24V12.0523H19.0877C18.8304 10.3423 19.0643 8.95295 19.7895 7.88422C20.538 6.81549 21.7544 6.35237 23.4386 6.49487L24 2.43369ZM9.54386 2.43369C6.31579 1.91121 3.91813 2.52869 2.35088 4.28616C0.783626 6.04363 0 8.63233 0 12.0523V21.7421H9.54386V12.0523H4.63158C4.37427 10.3423 4.60819 8.95295 5.33333 7.88422C6.08187 6.81549 7.29824 6.35237 8.98245 6.49487L9.54386 2.43369Z" fill="white"/>
</svg>
