<svg width="20" height="20" viewBox="0 0 20 20" fill="none" xmlns="http://www.w3.org/2000/svg">
<path d="M9.16915 5.8783V3.3333C9.16915 2.99664 8.96665 2.69247 8.65499 2.5633C8.34415 2.43497 7.98499 2.5058 7.74665 2.74414L1.91332 8.57747C1.58749 8.9033 1.58749 9.42997 1.91332 9.7558L7.74665 15.5891C7.98582 15.8283 8.34415 15.8991 8.65499 15.77C8.96665 15.6408 9.16915 15.3366 9.16915 15V12.42C9.40582 12.4033 9.63999 12.3958 9.87165 12.3958C14.3933 12.3958 16.7375 15.3725 16.84 15.5041C17 15.7158 17.2475 15.8333 17.5025 15.8333C17.5908 15.8333 17.6808 15.8191 17.7675 15.79C18.1067 15.6758 18.3358 15.3583 18.3358 15C18.3358 7.39664 11.5975 6.09914 9.16915 5.8783ZM9.87165 10.7291C9.33249 10.7291 8.77832 10.7666 8.22582 10.84C7.81165 10.8958 7.50249 11.2491 7.50249 11.6666V12.9883L3.68082 9.16664L7.50249 5.34497V6.66664C7.50249 7.12664 7.89499 7.49997 8.35415 7.49997C9.11249 7.49997 15.1158 7.66747 16.42 12.8541C15.0417 11.8391 12.8525 10.7291 9.87165 10.7291Z" fill="#33354D"/>
</svg>
