<svg width="1495" height="896" viewBox="0 0 1495 896" fill="none" xmlns="http://www.w3.org/2000/svg">
<g opacity="0.15">
<path d="M1310.21 753.31C1313.47 750.657 1316.87 747.871 1320.02 745.295C1321.86 743.767 1323.53 742.365 1324.83 741.251C1325.6 740.793 1326.55 739.994 1327.3 739.443C1326.86 739.735 1326.94 739.538 1327.25 739.299C1329.47 737.528 1327.33 739.102 1329.52 737.259C1330.7 736.218 1333.57 733.914 1336.49 731.601C1340.61 728.345 1344.8 725.04 1346.78 723.465C1346.36 723.19 1346.09 723.048 1345.9 722.903C1344.52 722.203 1343.18 721.401 1341.85 720.625C1341.17 720.234 1340.52 719.829 1339.87 719.444C1339.6 719.302 1339.34 719.14 1339.1 719.004C1338.9 718.906 1338.73 718.813 1338.56 718.72L1338.73 718.767C1337.27 717.976 1329.33 713.007 1327.65 712.086L1327.87 712.236C1326.36 711.475 1326.68 711.415 1325.58 710.682C1325.61 710.954 1324.32 710.343 1323.83 710.071L1323.88 710.042C1323.16 709.66 1321.44 708.86 1320.25 708.191L1320.36 708.114C1319.32 707.639 1317.5 706.504 1316.81 706.087C1315.24 705.089 1312.87 703.425 1310.64 702.281L1309.43 701.147L1309.22 701.063L1304.19 698.832C1303.04 698.349 1304.38 704.116 1304.22 704.136C1304.19 703.731 1304.13 703.321 1304.16 703.22C1304.1 703.336 1304.16 704.119 1304.26 704.54L1304.44 704.593C1304.62 705.563 1304.37 704.835 1304.5 705.768C1304.37 705.84 1304.22 704.968 1304.11 704.214C1304.18 704.91 1304.15 705.603 1304.34 705.855C1304.37 706.519 1304.16 705.803 1304.2 706.58C1304.3 707.134 1304.54 707.837 1304.53 708.489L1304.51 708.484C1304.54 710.046 1305.01 710.838 1305.04 712.268L1304.97 712.118C1304.96 712.618 1305.18 713.6 1305.2 714.525C1305.19 714.259 1305.28 714.022 1305.36 714.571C1305.39 715.608 1305.58 716.319 1305.56 717.099L1305.79 717.821C1306.19 721.438 1308.12 735.687 1308.58 739.322L1308.54 739.177C1308.89 742.69 1309.52 747.795 1310.21 753.31Z" fill="white"/>
<path d="M1266.93 751.363C1265.53 747.395 1264.07 743.256 1262.72 739.413C1261.92 737.17 1261.15 735.113 1260.54 733.515C1260.38 732.636 1259.94 731.483 1259.67 730.596C1259.79 731.11 1259.63 730.957 1259.5 730.59C1258.59 727.9 1259.35 730.437 1258.37 727.749C1257.8 726.295 1256.59 722.819 1255.41 719.288C1253.76 714.306 1252.06 709.246 1251.26 706.85C1250.87 707.153 1250.64 707.349 1250.44 707.51C1249.3 708.563 1248.12 709.558 1246.9 710.542C1246.3 711.026 1245.7 711.531 1245.12 712.001C1244.89 712.197 1244.66 712.393 1244.43 712.569C1244.29 712.702 1244.14 712.835 1243.99 712.967L1244.07 712.838C1242.84 713.948 1235.47 719.731 1234.01 720.997L1234.22 720.861C1232.99 722.018 1233.04 721.703 1231.98 722.493C1232.25 722.549 1231.21 723.564 1230.8 723.928L1230.8 723.881C1230.18 724.427 1228.85 725.774 1227.81 726.656L1227.76 726.532C1226.95 727.352 1225.27 728.661 1224.65 729.206C1223.16 730.354 1220.8 732.018 1218.96 733.719L1217.47 734.474L1217.31 734.648L1213.5 738.629C1212.65 739.544 1218.53 740.247 1218.51 740.394C1218.12 740.304 1217.73 740.214 1217.61 740.159C1217.7 740.249 1218.46 740.47 1218.88 740.525L1218.99 740.381C1219.95 740.547 1219.19 740.525 1220.12 740.726C1220.14 740.885 1219.27 740.702 1218.53 740.553C1219.2 740.725 1219.85 740.977 1220.16 740.891C1220.78 741.091 1220.05 741.035 1220.79 741.27C1221.34 741.36 1222.1 741.381 1222.71 741.622L1222.68 741.636C1224.18 742.132 1225.06 741.968 1226.41 742.424L1226.25 742.444C1226.72 742.643 1227.72 742.754 1228.6 743.05C1228.36 742.96 1228.16 742.816 1228.68 742.92C1229.68 743.251 1230.4 743.327 1231.11 743.596L1231.84 743.632C1235.39 744.474 1249.45 747.528 1253.01 748.309L1252.87 748.289C1256.47 748.995 1261.5 750.134 1266.93 751.363Z" fill="white"/>
<path d="M1155.03 780.716C1157.01 779.906 1159.11 779.065 1161.04 778.285C1162.16 777.819 1163.2 777.395 1164 777.035C1164.45 776.923 1165.03 776.672 1165.49 776.52C1165.22 776.598 1165.29 776.508 1165.49 776.433C1166.84 775.904 1165.56 776.344 1166.9 775.788C1167.63 775.471 1169.38 774.771 1171.15 774.078C1173.66 773.113 1176.2 772.134 1177.4 771.671C1177.24 771.471 1177.14 771.355 1177.06 771.266C1176.5 770.71 1175.97 770.12 1175.43 769.531C1175.17 769.236 1174.9 768.941 1174.64 768.646C1174.54 768.53 1174.44 768.414 1174.32 768.313C1174.25 768.249 1174.17 768.16 1174.1 768.096L1174.17 768.139C1173.58 767.532 1170.46 763.903 1169.77 763.2L1169.85 763.31C1169.23 762.717 1169.38 762.717 1168.96 762.203C1168.94 762.35 1168.39 761.841 1168.21 761.636L1168.23 761.621C1167.93 761.315 1167.21 760.672 1166.75 760.166L1166.82 760.143C1166.38 759.756 1165.68 758.92 1165.38 758.613C1164.75 757.888 1163.86 756.714 1162.94 755.814L1162.52 755.08L1162.43 755.011L1160.31 753.156C1159.82 752.731 1159.61 755.755 1159.52 755.752C1159.56 755.544 1159.6 755.336 1159.64 755.281C1159.58 755.33 1159.49 755.72 1159.49 755.94L1159.57 755.983C1159.51 756.471 1159.49 756.093 1159.42 756.575C1159.35 756.598 1159.41 756.136 1159.48 755.761C1159.4 756.11 1159.28 756.448 1159.35 756.598C1159.25 756.922 1159.27 756.555 1159.16 756.939C1159.13 757.213 1159.12 757.606 1159.03 757.93L1159.01 757.924C1158.79 758.692 1158.9 759.14 1158.7 759.847L1158.68 759.755C1158.59 759.991 1158.55 760.506 1158.43 760.95C1158.46 760.829 1158.54 760.719 1158.5 760.994C1158.35 761.519 1158.33 761.886 1158.21 762.244L1158.21 762.617C1157.86 764.442 1156.64 771.682 1156.32 773.539L1156.32 773.473C1156 775.33 1155.55 777.911 1155.03 780.716Z" fill="white"/>
<path d="M1330.07 586.185C1329.31 584.173 1328.51 582.064 1327.78 580.124C1327.34 578.992 1326.94 577.937 1326.6 577.139C1326.51 576.697 1326.29 576.107 1326.13 575.648C1326.19 575.905 1326.12 575.841 1326.05 575.645C1325.56 574.281 1325.96 575.575 1325.43 574.2C1325.12 573.454 1324.47 571.691 1323.82 569.908C1322.91 567.371 1322 564.813 1321.56 563.594C1321.37 563.755 1321.25 563.853 1321.14 563.931C1320.56 564.488 1319.98 564.999 1319.37 565.524C1319.08 565.789 1318.76 566.049 1318.47 566.294C1318.36 566.392 1318.24 566.49 1318.12 566.588C1318.06 566.657 1317.98 566.721 1317.91 566.81L1317.95 566.735C1317.32 567.321 1313.63 570.352 1312.91 571.021L1313.02 570.943C1312.41 571.555 1312.44 571.387 1311.9 571.803C1312.05 571.823 1311.52 572.351 1311.31 572.553L1311.3 572.527C1311 572.813 1310.34 573.519 1309.81 573.981L1309.79 573.909C1309.38 574.339 1308.55 575.019 1308.23 575.299C1307.49 575.896 1306.29 576.778 1305.38 577.676L1304.63 578.073L1304.56 578.163L1302.65 580.24C1302.23 580.731 1305.23 581.003 1305.23 581.09C1305.02 581.052 1304.82 580.994 1304.76 580.977C1304.81 581.034 1305.2 581.124 1305.41 581.142L1305.46 581.067C1305.94 581.14 1305.57 581.142 1306.04 581.235C1306.05 581.302 1305.6 581.24 1305.23 581.156C1305.58 581.235 1305.92 581.354 1306.07 581.307C1306.39 581.4 1306.02 581.383 1306.41 581.493C1306.68 581.528 1307.07 581.531 1307.39 581.644L1307.39 581.664C1308.15 581.905 1308.6 581.793 1309.3 582.016L1309.21 582.013C1309.45 582.103 1309.96 582.162 1310.4 582.289C1310.28 582.254 1310.17 582.179 1310.44 582.214C1310.97 582.365 1311.33 582.403 1311.69 582.528L1312.06 582.525C1313.87 582.915 1321.09 584.307 1322.93 584.682L1322.86 584.685C1324.72 585.086 1327.3 585.609 1330.07 586.185Z" fill="white"/>
<path d="M1405.4 795.052C1407.55 791.447 1409.8 787.671 1411.89 784.182C1413.1 782.121 1414.21 780.23 1415.03 778.738C1415.6 778.048 1416.22 776.977 1416.72 776.204C1416.41 776.616 1416.42 776.423 1416.63 776.068C1418.11 773.649 1416.65 775.854 1418.08 773.377C1418.85 772.001 1420.73 768.866 1422.69 765.688C1425.47 761.211 1428.26 756.674 1429.59 754.541C1429.09 754.442 1428.81 754.381 1428.56 754.332C1427.02 754.13 1425.5 753.848 1423.97 753.56C1423.2 753.406 1422.43 753.272 1421.7 753.13C1421.42 753.069 1421.12 753.028 1420.83 752.967C1420.64 752.935 1420.43 752.918 1420.24 752.886L1420.4 752.866C1418.76 752.635 1409.59 750.66 1407.71 750.36L1407.95 750.429C1406.28 750.234 1406.55 750.069 1405.26 749.744C1405.38 749.999 1403.96 749.852 1403.42 749.762L1403.45 749.727C1402.63 749.602 1400.76 749.435 1399.42 749.226L1399.49 749.116C1398.36 749.031 1396.26 748.56 1395.44 748.435C1393.61 748.02 1390.83 747.265 1388.34 746.964L1386.82 746.31L1386.58 746.306L1381.09 745.912C1379.84 745.839 1383.08 750.814 1382.95 750.886C1382.76 750.528 1382.58 750.169 1382.56 750.031C1382.54 750.158 1382.86 750.883 1383.09 751.233L1383.27 751.219C1383.77 752.063 1383.28 751.464 1383.72 752.311C1383.62 752.415 1383.18 751.655 1382.84 750.964C1383.14 751.597 1383.36 752.253 1383.62 752.435C1383.86 753.051 1383.44 752.449 1383.73 753.169C1384.03 753.649 1384.48 754.236 1384.7 754.846L1384.68 754.84C1385.24 756.294 1385.95 756.869 1386.46 758.219L1386.34 758.097C1386.49 758.577 1387.04 759.413 1387.38 760.277C1387.3 760.034 1387.28 759.788 1387.54 760.257C1387.94 761.225 1388.34 761.82 1388.58 762.569L1389.05 763.162C1390.67 766.428 1397.34 779.172 1399.01 782.429L1398.93 782.32C1400.53 785.514 1402.86 790.101 1405.4 795.052Z" fill="white"/>
<path d="M1341.28 680.747C1345.04 678.898 1349.01 676.973 1352.67 675.201C1354.81 674.132 1356.76 673.158 1358.27 672.369C1359.14 672.093 1360.24 671.554 1361.09 671.185C1360.6 671.352 1360.71 671.187 1361.09 671.032C1363.64 669.819 1361.22 670.873 1363.78 669.574C1365.17 668.836 1368.47 667.246 1371.84 665.652C1376.61 663.434 1381.44 661.167 1383.72 660.092C1383.37 659.728 1383.16 659.537 1382.97 659.352C1381.79 658.357 1380.68 657.272 1379.55 656.182C1378.98 655.647 1378.44 655.097 1377.88 654.588C1377.66 654.371 1377.45 654.18 1377.23 653.983C1377.07 653.85 1376.93 653.723 1376.77 653.59L1376.93 653.657C1375.69 652.557 1369.09 645.894 1367.67 644.61L1367.83 644.809C1366.54 643.739 1366.84 643.739 1365.96 642.764C1365.93 643.039 1364.81 642.148 1364.41 641.772L1364.46 641.743C1363.85 641.196 1362.37 640.027 1361.37 639.105L1361.49 639.053C1360.58 638.353 1359.09 636.831 1358.49 636.264C1357.19 634.928 1355.27 632.759 1353.35 631.136L1352.43 629.757L1352.24 629.613L1347.86 626.277C1346.84 625.527 1346.82 631.472 1346.68 631.452C1346.73 631.05 1346.78 630.649 1346.81 630.527C1346.72 630.611 1346.6 631.408 1346.59 631.821L1346.76 631.914C1346.72 632.887 1346.64 632.119 1346.54 633.075C1346.39 633.121 1346.45 632.24 1346.54 631.477C1346.45 632.153 1346.26 632.841 1346.39 633.141C1346.25 633.779 1346.22 633.048 1346.08 633.82C1346.05 634.38 1346.13 635.122 1345.97 635.755L1345.95 635.749C1345.64 637.28 1345.89 638.141 1345.6 639.544L1345.58 639.385C1345.44 639.87 1345.44 640.876 1345.25 641.762C1345.3 641.514 1345.43 641.289 1345.38 641.843C1345.17 642.877 1345.18 643.582 1344.99 644.336L1345.04 645.072C1344.61 648.691 1343.2 663.008 1342.81 666.639L1342.8 666.506C1342.43 670.096 1341.88 675.211 1341.28 680.747Z" fill="white"/>
<path d="M1282.45 684.936C1284.45 681.244 1286.55 677.382 1288.49 673.805C1289.62 671.701 1290.64 669.761 1291.41 668.231C1291.96 667.515 1292.51 666.427 1293.01 665.627C1292.71 666.046 1292.7 665.846 1292.91 665.491C1294.28 663.018 1292.93 665.278 1294.25 662.746C1294.96 661.352 1296.72 658.116 1298.54 654.877C1301.13 650.302 1303.73 645.646 1304.98 643.443C1304.47 643.365 1304.18 643.304 1303.93 643.275C1302.39 643.14 1300.86 642.918 1299.31 642.691C1298.53 642.577 1297.77 642.47 1297.02 642.342C1296.73 642.301 1296.43 642.26 1296.14 642.219C1295.93 642.201 1295.73 642.19 1295.54 642.158L1295.7 642.138C1294.04 641.968 1284.81 640.368 1282.91 640.149L1283.15 640.218C1281.48 640.089 1281.73 639.899 1280.43 639.634C1280.57 639.894 1279.13 639.809 1278.58 639.739L1278.62 639.684C1277.79 639.599 1275.91 639.519 1274.56 639.329L1274.64 639.22C1273.49 639.175 1271.39 638.811 1270.57 638.686C1268.74 638.357 1265.9 637.718 1263.41 637.504L1261.87 636.91L1261.63 636.907L1256.12 636.747C1254.85 636.734 1258.3 641.574 1258.17 641.646C1257.97 641.281 1257.79 640.923 1257.75 640.825C1257.73 640.952 1258.1 641.669 1258.32 642.019L1258.5 642.004C1259.03 642.834 1258.52 642.25 1259.01 643.068C1258.91 643.172 1258.45 642.426 1258.07 641.77C1258.39 642.388 1258.65 643.03 1258.9 643.212C1259.17 643.813 1258.72 643.226 1259.04 643.952C1259.34 644.412 1259.83 644.99 1260.05 645.6L1260.03 645.594C1260.67 647.025 1261.39 647.58 1261.95 648.901L1261.83 648.779C1262 649.265 1262.58 650.066 1262.95 650.915C1262.84 650.667 1262.83 650.421 1263.11 650.895C1263.53 651.849 1263.96 652.43 1264.25 653.15L1264.72 653.722C1266.47 656.917 1273.66 669.393 1275.46 672.558L1275.36 672.442C1277.19 675.614 1279.71 680.1 1282.45 684.936Z" fill="white"/>
<path d="M1344.62 825.38C1346.14 821.462 1347.75 817.374 1349.24 813.577C1350.1 811.351 1350.86 809.295 1351.43 807.687C1351.88 806.896 1352.32 805.753 1352.69 804.898C1352.45 805.354 1352.42 805.149 1352.57 804.777C1353.63 802.15 1352.55 804.552 1353.56 801.887C1354.07 800.414 1355.42 796.996 1356.83 793.548C1358.82 788.672 1360.82 783.735 1361.8 781.411C1361.3 781.399 1361 781.378 1360.74 781.369C1359.19 781.428 1357.64 781.4 1356.08 781.366C1355.29 781.36 1354.53 781.338 1353.77 781.317C1353.47 781.317 1353.18 781.322 1352.87 781.322C1352.68 781.33 1352.48 781.339 1352.28 781.347L1352.44 781.307C1350.79 781.337 1341.42 780.92 1339.51 780.941L1339.76 780.97C1338.07 781.055 1338.31 780.839 1337 780.747C1337.18 780.973 1335.73 781.061 1335.18 781.077L1335.2 781.017C1334.36 781.039 1332.5 781.184 1331.12 781.182L1331.18 781.066C1330.03 781.175 1327.9 781.065 1327.07 781.047C1325.2 780.946 1322.32 780.668 1319.82 780.76L1318.21 780.363L1317.96 780.38L1312.5 780.91C1311.25 781.056 1315.27 785.426 1315.14 785.498C1314.91 785.168 1314.67 784.838 1314.61 784.734C1314.62 784.867 1315.07 785.521 1315.35 785.842L1315.53 785.807C1316.17 786.559 1315.59 786.044 1316.16 786.819C1316.08 786.949 1315.53 786.266 1315.07 785.654C1315.48 786.229 1315.8 786.847 1316.09 786.975C1316.44 787.533 1315.91 787.009 1316.33 787.677C1316.69 788.108 1317.24 788.617 1317.56 789.189L1317.53 789.204C1318.33 790.548 1319.12 790.994 1319.86 792.234L1319.73 792.133C1319.97 792.595 1320.64 793.312 1321.11 794.104C1320.98 793.87 1320.94 793.639 1321.28 794.064C1321.83 794.966 1322.32 795.478 1322.69 796.154L1323.24 796.664C1325.37 799.615 1334.07 811.083 1336.24 814.026L1336.14 813.93C1338.23 816.784 1341.31 820.927 1344.62 825.38Z" fill="white"/>
<path d="M1295.66 811.703C1291.64 812.891 1287.41 814.148 1283.51 815.304C1281.23 816.006 1279.12 816.647 1277.5 817.168C1276.62 817.286 1275.44 817.648 1274.54 817.892C1275.05 817.798 1274.91 817.956 1274.51 818.06C1271.8 818.834 1274.36 818.213 1271.62 819.067C1270.12 819.557 1266.61 820.583 1263.01 821.607C1257.95 823.019 1252.81 824.454 1250.38 825.136C1250.68 825.549 1250.85 825.795 1250.99 825.989C1251.99 827.171 1252.92 828.423 1253.85 829.675C1254.31 830.288 1254.78 830.927 1255.22 831.534C1255.41 831.786 1255.59 832.011 1255.76 832.237C1255.89 832.404 1256.02 832.552 1256.15 832.699L1256.03 832.598C1257.08 833.885 1262.48 841.538 1263.67 843.039L1263.54 842.804C1264.63 844.083 1264.32 844.036 1265.05 845.143C1265.13 844.88 1266.09 845.945 1266.42 846.39L1266.38 846.398C1266.89 847.049 1268.15 848.44 1269 849.516L1268.87 849.541C1269.65 850.38 1270.88 852.132 1271.37 852.777C1272.44 854.309 1273.97 856.761 1275.58 858.689L1276.26 860.198L1276.44 860.357L1280.21 864.371C1281.08 865.279 1282.09 859.42 1282.23 859.46C1282.12 859.844 1282.01 860.228 1281.93 860.338C1282.02 860.254 1282.28 859.498 1282.36 859.082L1282.22 858.975C1282.42 858.028 1282.38 858.782 1282.62 857.866C1282.77 857.867 1282.56 858.701 1282.36 859.455C1282.57 858.794 1282.87 858.156 1282.78 857.846C1283.02 857.237 1282.92 857.974 1283.2 857.223C1283.31 856.686 1283.37 855.938 1283.63 855.334L1283.65 855.36C1284.22 853.905 1284.09 852.992 1284.62 851.679L1284.62 851.832C1284.84 851.37 1284.99 850.385 1285.34 849.545C1285.25 849.782 1285.08 849.975 1285.21 849.444C1285.59 848.456 1285.7 847.746 1286.01 847.047L1286.07 846.299C1287.1 842.808 1290.84 828.918 1291.81 825.39L1291.79 825.537C1292.78 822.035 1294.16 817.051 1295.66 811.703Z" fill="white"/>
</g>
<g opacity="0.2">
<path d="M103.451 467.33C105.426 465.72 107.491 464.03 109.399 462.467C110.515 461.54 111.529 460.689 112.32 460.014C112.785 459.736 113.362 459.251 113.817 458.917C113.554 459.094 113.601 458.975 113.789 458.829C115.132 457.755 113.836 458.71 115.166 457.592C115.878 456.96 117.62 455.562 119.39 454.159C121.895 452.184 124.435 450.179 125.639 449.223C125.381 449.057 125.22 448.97 125.099 448.883C124.266 448.458 123.45 447.971 122.642 447.5C122.232 447.263 121.838 447.017 121.441 446.784C121.28 446.698 121.122 446.599 120.973 446.517C120.858 446.457 120.754 446.401 120.651 446.345L120.749 446.373C119.865 445.893 115.049 442.878 114.028 442.32L114.162 442.411C113.246 441.949 113.442 441.913 112.773 441.468C112.792 441.633 112.009 441.262 111.712 441.097L111.743 441.08C111.305 440.848 110.263 440.363 109.543 439.957L109.61 439.91C108.976 439.622 107.873 438.933 107.454 438.681C106.5 438.075 105.064 437.065 103.711 436.371L102.979 435.683L102.847 435.633L99.7981 434.279C99.0993 433.986 99.9133 437.485 99.8169 437.497C99.7944 437.251 99.7597 437.003 99.7773 436.941C99.7439 437.011 99.7801 437.486 99.8394 437.742L99.9497 437.774C100.059 438.363 99.9075 437.921 99.9839 438.487C99.905 438.531 99.818 438.002 99.7503 437.544C99.7883 437.966 99.7737 438.387 99.8892 438.54C99.9062 438.943 99.7788 438.508 99.8028 438.979C99.8655 439.316 100.009 439.742 100.001 440.138L99.9888 440.134C100.009 441.083 100.295 441.563 100.312 442.431L100.272 442.339C100.264 442.643 100.399 443.239 100.41 443.799C100.403 443.638 100.458 443.494 100.508 443.828C100.527 444.457 100.642 444.888 100.625 445.361L100.765 445.799C101.011 447.994 102.18 456.638 102.463 458.843L102.435 458.756C102.646 460.887 103.031 463.984 103.451 467.33Z" fill="white"/>
<path d="M77.1917 466.148C76.343 463.741 75.4577 461.23 74.6404 458.898C74.155 457.538 73.6904 456.289 73.3183 455.32C73.2191 454.787 72.9554 454.087 72.7913 453.549C72.861 453.861 72.7683 453.768 72.6862 453.546C72.1327 451.913 72.5934 453.453 71.9996 451.822C71.6555 450.94 70.9204 448.831 70.2081 446.689C69.2042 443.666 68.1741 440.596 67.6888 439.143C67.4502 439.327 67.3098 439.446 67.1888 439.544C66.501 440.182 65.7835 440.786 65.0415 441.383C64.6784 441.677 64.3117 441.983 63.9644 442.268C63.824 442.387 63.6837 442.506 63.5469 442.613C63.4574 442.693 63.3679 442.774 63.2784 442.854L63.3276 442.776C62.5767 443.449 58.1053 446.957 57.2211 447.726L57.3509 447.643C56.6052 448.345 56.6335 448.154 55.9915 448.634C56.1545 448.667 55.5263 449.283 55.2772 449.504L55.272 449.476C54.8983 449.806 54.0929 450.624 53.4613 451.159L53.4299 451.084C52.9421 451.581 51.9176 452.375 51.544 452.706C50.6406 453.402 49.2093 454.412 48.0899 455.444L47.1886 455.902L47.0921 456.007L44.7794 458.423C44.2617 458.978 47.8291 459.404 47.8167 459.494C47.5802 459.439 47.3437 459.385 47.2737 459.351C47.3244 459.406 47.7904 459.539 48.0462 459.573L48.1112 459.485C48.6929 459.586 48.232 459.573 48.7944 459.695C48.8065 459.791 48.2809 459.68 47.8289 459.59C48.2371 459.694 48.6312 459.847 48.8188 459.795C49.1954 459.916 48.7538 459.882 49.204 460.025C49.5334 460.079 49.9943 460.092 50.3639 460.238L50.3481 460.247C51.2572 460.548 51.7901 460.449 52.6134 460.725L52.517 460.737C52.8007 460.858 53.4052 460.925 53.9378 461.105C53.7941 461.05 53.6733 460.963 53.987 461.026C54.593 461.227 55.0311 461.273 55.462 461.436L55.9071 461.458C58.0567 461.969 66.5905 463.821 68.7507 464.295L68.6613 464.283C70.8479 464.712 73.9015 465.402 77.1917 466.148Z" fill="white"/>
<path d="M9.30564 483.957C10.5084 483.466 11.7831 482.956 12.9543 482.483C13.6329 482.2 14.2641 481.943 14.7515 481.724C15.0233 481.656 15.3722 481.504 15.651 481.412C15.4914 481.459 15.5335 481.405 15.6528 481.359C16.4751 481.038 15.6949 481.305 16.5084 480.968C16.9486 480.775 18.0128 480.351 19.0894 479.93C20.6112 479.345 22.1489 478.751 22.88 478.47C22.782 478.349 22.7225 478.278 22.6718 478.224C22.3305 477.887 22.0085 477.529 21.6865 477.171C21.5255 476.992 21.3644 476.813 21.2034 476.634C21.1439 476.564 21.0844 476.494 21.0092 476.433C20.9672 476.394 20.9164 476.34 20.8744 476.301L20.9199 476.327C20.5611 475.959 18.6713 473.757 18.2495 473.331L18.2967 473.398C17.9221 473.038 18.015 473.038 17.7595 472.726C17.7471 472.815 17.411 472.506 17.3008 472.382L17.3166 472.373C17.1311 472.187 16.6987 471.797 16.4152 471.49L16.459 471.476C16.1947 471.241 15.7695 470.734 15.584 470.548C15.206 470.108 14.6671 469.396 14.107 468.85L13.85 468.405L13.7957 468.362L12.5126 467.237C12.215 466.979 12.0865 468.814 12.0339 468.812C12.0569 468.686 12.0798 468.56 12.1026 468.527C12.0675 468.557 12.0129 468.793 12.0145 468.926L12.0601 468.953C12.0281 469.249 12.0144 469.019 11.9702 469.312C11.9264 469.326 11.9671 469.045 12.0059 468.818C11.9583 469.03 11.8862 469.234 11.9264 469.326C11.8701 469.522 11.8808 469.299 11.814 469.532C11.7927 469.699 11.7907 469.937 11.7344 470.133L11.7221 470.13C11.5883 470.596 11.6563 470.867 11.5331 471.297L11.5227 471.241C11.4682 471.384 11.445 471.696 11.3675 471.966C11.3887 471.892 11.4343 471.826 11.4131 471.992C11.3216 472.311 11.3108 472.534 11.2351 472.751L11.2366 472.977C11.0249 474.084 10.2816 478.477 10.0909 479.603L10.0893 479.563C9.89858 480.689 9.62146 482.256 9.30564 483.957Z" fill="white"/>
<path d="M115.496 365.94C115.037 364.719 114.555 363.44 114.109 362.263C113.842 361.576 113.601 360.936 113.395 360.452C113.339 360.184 113.203 359.826 113.11 359.547C113.145 359.703 113.103 359.665 113.058 359.546C112.764 358.718 113.004 359.503 112.686 358.669C112.497 358.216 112.1 357.147 111.707 356.065C111.154 354.526 110.604 352.974 110.338 352.234C110.217 352.332 110.147 352.392 110.081 352.439C109.731 352.777 109.377 353.087 109.007 353.405C108.828 353.566 108.637 353.724 108.461 353.872C108.391 353.932 108.321 353.991 108.251 354.051C108.212 354.093 108.161 354.131 108.119 354.186L108.145 354.14C107.765 354.495 105.525 356.334 105.089 356.74L105.156 356.693C104.784 357.064 104.8 356.963 104.475 357.215C104.565 357.227 104.247 357.547 104.119 357.67L104.11 357.654C103.928 357.827 103.526 358.256 103.207 358.536L103.193 358.492C102.945 358.753 102.442 359.166 102.247 359.336C101.798 359.698 101.074 360.233 100.519 360.778L100.065 361.019L100.023 361.073L98.8647 362.333C98.6067 362.631 100.431 362.796 100.429 362.849C100.303 362.826 100.18 362.791 100.143 362.78C100.173 362.815 100.41 362.87 100.539 362.881L100.566 362.835C100.858 362.879 100.632 362.881 100.921 362.937C100.923 362.977 100.655 362.94 100.431 362.889C100.643 362.937 100.848 363.009 100.935 362.981C101.131 363.037 100.909 363.026 101.142 363.093C101.308 363.115 101.547 363.117 101.739 363.185L101.736 363.197C102.198 363.343 102.47 363.275 102.896 363.411L102.843 363.409C102.987 363.464 103.295 363.499 103.565 363.577C103.491 363.555 103.425 363.51 103.591 363.531C103.91 363.623 104.129 363.646 104.346 363.721L104.572 363.72C105.673 363.956 110.049 364.801 111.165 365.028L111.125 365.03C112.25 365.273 113.818 365.591 115.496 365.94Z" fill="white"/>
<path d="M161.203 492.654C162.508 490.467 163.869 488.177 165.141 486.06C165.871 484.809 166.546 483.662 167.045 482.757C167.39 482.339 167.763 481.689 168.07 481.22C167.879 481.47 167.886 481.353 168.014 481.137C168.913 479.67 168.025 481.007 168.894 479.505C169.359 478.67 170.503 476.768 171.693 474.84C173.375 472.124 175.068 469.371 175.878 468.077C175.576 468.017 175.401 467.98 175.251 467.95C174.317 467.828 173.397 467.657 172.465 467.482C172 467.389 171.533 467.308 171.093 467.221C170.918 467.184 170.739 467.16 170.564 467.122C170.45 467.103 170.32 467.092 170.206 467.073L170.303 467.061C169.308 466.921 163.745 465.722 162.603 465.541L162.75 465.583C161.735 465.464 161.897 465.364 161.117 465.167C161.192 465.321 160.328 465.233 159.999 465.178L160.018 465.157C159.522 465.081 158.383 464.98 157.57 464.853L157.616 464.786C156.928 464.734 155.656 464.449 155.16 464.373C154.051 464.121 152.364 463.663 150.85 463.481L149.929 463.083L149.783 463.082L146.454 462.843C145.697 462.798 147.657 465.816 147.579 465.86C147.468 465.642 147.358 465.425 147.343 465.341C147.334 465.418 147.526 465.858 147.664 466.07L147.773 466.062C148.077 466.574 147.783 466.211 148.047 466.724C147.989 466.787 147.723 466.326 147.512 465.907C147.694 466.291 147.832 466.689 147.986 466.8C148.131 467.173 147.877 466.808 148.057 467.245C148.239 467.536 148.508 467.892 148.641 468.262L148.629 468.259C148.973 469.14 149.404 469.49 149.713 470.309L149.641 470.235C149.73 470.526 150.062 471.033 150.27 471.557C150.22 471.41 150.209 471.261 150.367 471.545C150.609 472.132 150.851 472.494 150.999 472.948L151.281 473.307C152.265 475.289 156.31 483.02 157.323 484.997L157.275 484.93C158.246 486.868 159.663 489.651 161.203 492.654Z" fill="white"/>
<path d="M122.298 423.306C124.584 422.184 126.99 421.017 129.21 419.942C130.511 419.293 131.69 418.702 132.61 418.223C133.136 418.056 133.801 417.729 134.316 417.505C134.022 417.606 134.09 417.507 134.317 417.412C135.868 416.676 134.397 417.316 135.951 416.528C136.796 416.08 138.799 415.115 140.842 414.149C143.736 412.803 146.667 411.427 148.048 410.775C147.833 410.554 147.707 410.438 147.593 410.326C146.877 409.722 146.203 409.064 145.517 408.403C145.172 408.078 144.843 407.745 144.507 407.436C144.373 407.304 144.246 407.189 144.108 407.069C144.012 406.989 143.928 406.911 143.832 406.831L143.926 406.871C143.175 406.204 139.172 402.161 138.308 401.382L138.406 401.503C137.623 400.854 137.809 400.854 137.275 400.263C137.254 400.429 136.573 399.889 136.333 399.661L136.365 399.643C135.995 399.312 135.097 398.602 134.488 398.043L134.563 398.011C134.008 397.586 133.105 396.663 132.74 396.32C131.95 395.509 130.788 394.193 129.624 393.209L129.068 392.372L128.947 392.284L126.289 390.26C125.677 389.806 125.663 393.412 125.574 393.4C125.604 393.156 125.634 392.913 125.655 392.839C125.601 392.89 125.528 393.373 125.523 393.624L125.626 393.68C125.603 394.271 125.551 393.804 125.49 394.384C125.403 394.412 125.437 393.878 125.49 393.415C125.438 393.825 125.319 394.242 125.399 394.425C125.315 394.812 125.296 394.368 125.215 394.836C125.197 395.176 125.24 395.627 125.143 396.01L125.131 396.007C124.944 396.935 125.099 397.458 124.921 398.309L124.909 398.213C124.824 398.507 124.822 399.117 124.707 399.655C124.737 399.504 124.816 399.368 124.786 399.704C124.659 400.331 124.669 400.759 124.551 401.216L124.582 401.663C124.324 403.858 123.463 412.544 123.229 414.747L123.225 414.666C122.998 416.844 122.665 419.947 122.298 423.306Z" fill="white"/>
<path d="M86.6124 425.848C87.8261 423.608 89.0961 421.265 90.2764 419.095C90.9615 417.819 91.5781 416.642 92.0437 415.714C92.3807 415.28 92.7162 414.619 93.0147 414.134C92.8357 414.388 92.8306 414.267 92.9588 414.052C93.7878 412.551 92.9694 413.922 93.7687 412.386C94.1974 411.54 95.2654 409.577 96.3736 407.612C97.9403 404.837 99.521 402.012 100.276 400.676C99.9714 400.628 99.7962 400.591 99.642 400.573C98.7098 400.492 97.7794 400.357 96.8368 400.219C96.3655 400.15 95.9064 400.085 95.4508 400.007C95.2721 399.983 95.0934 399.958 94.9147 399.933C94.785 399.922 94.6676 399.915 94.5537 399.896L94.6501 399.884C93.6444 399.781 88.043 398.81 86.8865 398.677L87.0337 398.719C86.0209 398.641 86.1735 398.525 85.3833 398.365C85.4707 398.523 84.5964 398.471 84.2634 398.428L84.2863 398.395C83.7834 398.344 82.6426 398.295 81.8261 398.18L81.8718 398.113C81.1761 398.086 79.8988 397.866 79.403 397.79C78.2922 397.59 76.5717 397.202 75.056 397.073L74.1242 396.712L73.9787 396.71L70.6352 396.613C69.8676 396.605 71.9581 399.541 71.8792 399.585C71.7568 399.364 71.6467 399.147 71.624 399.087C71.6151 399.164 71.8354 399.599 71.9736 399.811L72.0822 399.803C72.4023 400.306 72.0925 399.952 72.3881 400.448C72.3302 400.511 72.0486 400.059 71.8178 399.66C72.0153 400.036 72.169 400.425 72.3231 400.536C72.4839 400.9 72.2145 400.544 72.4067 400.984C72.5921 401.263 72.8896 401.614 73.0223 401.984L73.01 401.98C73.398 402.848 73.8322 403.185 74.1729 403.987L74.1011 403.913C74.2024 404.207 74.554 404.693 74.7777 405.209C74.7148 405.058 74.7045 404.909 74.8741 405.197C75.1328 405.775 75.3899 406.128 75.5698 406.565L75.8551 406.912C76.9181 408.85 81.2757 416.419 82.3704 418.339L82.3109 418.269C83.4177 420.193 84.946 422.914 86.6124 425.848Z" fill="white"/>
<path d="M124.328 511.053C125.249 508.676 126.227 506.196 127.127 503.893C127.647 502.542 128.112 501.295 128.458 500.319C128.729 499.84 128.994 499.146 129.223 498.627C129.077 498.904 129.059 498.78 129.151 498.554C129.794 496.96 129.137 498.417 129.747 496.8C130.057 495.907 130.878 493.833 131.73 491.742C132.938 488.783 134.156 485.788 134.747 484.378C134.443 484.371 134.261 484.358 134.103 484.353C133.164 484.389 132.227 484.372 131.277 484.351C130.8 484.347 130.339 484.334 129.878 484.321C129.693 484.321 129.519 484.324 129.333 484.324C129.212 484.329 129.091 484.334 128.971 484.339L129.07 484.315C128.07 484.333 122.382 484.081 121.223 484.093L121.378 484.111C120.354 484.162 120.498 484.031 119.704 483.976C119.811 484.112 118.933 484.166 118.598 484.176L118.609 484.139C118.1 484.152 116.973 484.24 116.138 484.239L116.171 484.169C115.475 484.235 114.18 484.168 113.679 484.157C112.542 484.096 110.798 483.928 109.282 483.984L108.303 483.742L108.154 483.753L104.836 484.074C104.081 484.163 106.519 486.814 106.44 486.857C106.298 486.658 106.156 486.458 106.121 486.394C106.125 486.475 106.396 486.871 106.566 487.066L106.678 487.045C107.065 487.501 106.716 487.189 107.059 487.659C107.01 487.738 106.677 487.324 106.399 486.952C106.644 487.301 106.842 487.676 107.019 487.754C107.227 488.092 106.906 487.775 107.162 488.18C107.379 488.441 107.715 488.75 107.907 489.097L107.891 489.106C108.374 489.921 108.854 490.192 109.302 490.944L109.226 490.883C109.371 491.163 109.777 491.599 110.064 492.079C109.986 491.937 109.959 491.797 110.164 492.055C110.498 492.602 110.794 492.912 111.021 493.323L111.357 493.632C112.648 495.422 117.925 502.379 119.244 504.165L119.181 504.107C120.449 505.838 122.316 508.352 124.328 511.053Z" fill="white"/>
<path d="M94.6205 502.756C92.1837 503.476 89.6154 504.239 87.2505 504.94C85.8673 505.366 84.5875 505.756 83.6075 506.071C83.0694 506.143 82.3559 506.363 81.8089 506.511C82.1174 506.453 82.0367 506.55 81.793 506.612C80.1451 507.082 81.7 506.705 80.0381 507.224C79.1299 507.52 76.9999 508.143 74.8173 508.764C71.7442 509.621 68.6273 510.492 67.1547 510.905C67.3349 511.156 67.4381 511.305 67.5238 511.423C68.1275 512.14 68.6926 512.9 69.2577 513.659C69.5358 514.031 69.8228 514.419 70.0887 514.787C70.2041 514.94 70.3109 515.076 70.4176 515.213C70.4946 515.315 70.5751 515.404 70.6556 515.494L70.5803 515.432C71.219 516.213 74.492 520.856 75.2129 521.766L75.1341 521.624C75.8009 522.4 75.6099 522.371 76.0542 523.043C76.0999 522.884 76.6844 523.529 76.8856 523.8L76.8576 523.805C77.169 524.199 77.9355 525.043 78.4517 525.696L78.3675 525.712C78.8453 526.22 79.5888 527.283 79.888 527.674C80.537 528.604 81.4639 530.091 82.4421 531.261L82.8562 532.177L82.9612 532.273L85.2486 534.709C85.7807 535.259 86.3897 531.704 86.4756 531.729C86.4087 531.962 86.3418 532.195 86.2962 532.262C86.3506 532.211 86.5089 531.752 86.5547 531.5L86.4672 531.435C86.5923 530.86 86.5672 531.317 86.7134 530.762C86.8063 530.762 86.6742 531.268 86.5562 531.726C86.6846 531.325 86.8621 530.938 86.8098 530.75C86.9557 530.38 86.8938 530.827 87.0644 530.372C87.1314 530.046 87.1687 529.592 87.3269 529.226L87.3357 529.242C87.682 528.359 87.6021 527.805 87.9238 527.008L87.9237 527.101C88.0572 526.821 88.1491 526.223 88.3618 525.714C88.3072 525.857 88.2072 525.975 88.2865 525.652C88.5115 525.053 88.5822 524.622 88.7702 524.198L88.8076 523.744C89.4289 521.626 91.7019 513.2 92.2899 511.059L92.2775 511.149C92.8742 509.024 93.7157 506 94.6205 502.756Z" fill="white"/>
</g>
<g opacity="0.1">
<path d="M1347.5 295C1266.17 295 1200 228.833 1200 147.5C1200 66.1668 1266.17 0 1347.5 0C1428.83 0 1495 66.1668 1495 147.5C1494.98 228.833 1428.82 295 1347.5 295ZM1347.5 4.95707C1268.9 4.95707 1204.96 68.9017 1204.96 147.5C1204.96 226.098 1268.9 290.043 1347.5 290.043C1426.1 290.043 1490.04 226.098 1490.04 147.5C1490.04 68.9017 1426.1 4.95707 1347.5 4.95707Z" fill="white"/>
<path d="M1347.5 278.904C1275.05 278.904 1216.11 219.963 1216.11 147.519C1216.11 75.0738 1275.05 16.1328 1347.5 16.1328C1419.94 16.1328 1478.88 75.0738 1478.88 147.519C1478.87 219.963 1419.93 278.904 1347.5 278.904ZM1347.5 21.0899C1277.79 21.0899 1221.07 77.8087 1221.07 147.519C1221.07 217.228 1277.79 273.947 1347.5 273.947C1417.21 273.947 1473.93 217.228 1473.93 147.519C1473.93 77.8087 1417.21 21.0899 1347.5 21.0899Z" fill="white"/>
<path d="M1347.5 262.778C1283.94 262.778 1232.23 211.063 1232.23 147.507C1232.23 83.9505 1283.94 32.2353 1347.5 32.2353C1411.06 32.2353 1462.77 83.9505 1462.77 147.507C1462.76 211.063 1411.06 262.778 1347.5 262.778ZM1347.5 37.1924C1286.66 37.1924 1237.19 86.6854 1237.19 147.507C1237.19 208.343 1286.68 257.821 1347.5 257.821C1408.32 257.821 1457.81 208.328 1457.81 147.507C1457.81 86.6854 1408.32 37.1924 1347.5 37.1924Z" fill="white"/>
</g>
</svg>
