<svg width="20" height="20" viewBox="0 0 20 20" fill="none" xmlns="http://www.w3.org/2000/svg">
<path d="M5.42999 11.9359L4.18832 17.3126C4.11166 17.6451 4.24499 17.9909 4.52666 18.1851C4.66916 18.2834 4.83416 18.3334 4.99999 18.3334C5.16082 18.3334 5.32249 18.2867 5.46249 18.1934L9.99999 15.1684L14.5375 18.1934C14.8275 18.3867 15.2083 18.3792 15.4917 18.1734C15.7733 17.9676 15.8975 17.6067 15.8017 17.2717L14.2775 11.9384L18.0575 8.53675C18.305 8.31342 18.3958 7.96508 18.2892 7.65008C18.1817 7.33508 17.8975 7.11341 17.5658 7.08675L12.815 6.70842L10.7592 2.15758C10.625 1.85841 10.3275 1.66675 9.99999 1.66675C9.67249 1.66675 9.37499 1.85841 9.24082 2.15758L7.18499 6.70842L2.43416 7.08592C2.10749 7.11175 1.82666 7.32591 1.71666 7.63341C1.60499 7.94092 1.68499 8.28508 1.91832 8.51341L5.42999 11.9359ZM7.80749 8.33091C8.10999 8.30675 8.37666 8.12008 8.50082 7.84258L9.99999 4.52508L11.4992 7.84258C11.6233 8.12008 11.89 8.30675 12.1925 8.33091L15.5025 8.59342L12.7767 11.0467C12.54 11.2601 12.4458 11.5884 12.5325 11.8951L13.5767 15.5492L10.4633 13.4734C10.1833 13.2859 9.81916 13.2859 9.53916 13.4734L6.28582 15.6426L7.16082 11.8542C7.22582 11.5709 7.13916 11.2734 6.93082 11.0709L4.39916 8.60258L7.80749 8.33091Z" fill="#9397AD"/>
</svg>
