<svg width="25" height="24" viewBox="0 0 25 24" fill="none" xmlns="http://www.w3.org/2000/svg">
<path d="M9.55055 2.35216C9.19276 2.56086 9.07189 3.02009 9.2806 3.37789C9.4893 3.73568 9.94853 3.85654 10.3063 3.64784L9.55055 2.35216ZM12.5 1.5L12.8779 0.852157C12.6444 0.715948 12.3556 0.715948 12.1221 0.852157L12.5 1.5ZM14.6937 3.64784C15.0515 3.85654 15.5107 3.73568 15.7194 3.37789C15.9281 3.02009 15.8072 2.56086 15.4495 2.35216L14.6937 3.64784ZM11.75 5.25C11.75 5.66421 12.0858 6 12.5 6C12.9142 6 13.25 5.66421 13.25 5.25L11.75 5.25ZM15.4495 21.6478C15.8072 21.4391 15.9281 20.9799 15.7194 20.6221C15.5107 20.2643 15.0515 20.1435 14.6937 20.3522L15.4495 21.6478ZM12.5 22.5L12.1221 23.1478C12.3556 23.2841 12.6444 23.2841 12.8779 23.1478L12.5 22.5ZM10.3063 20.3522C9.94853 20.1435 9.4893 20.2643 9.2806 20.6221C9.07189 20.9799 9.19276 21.4391 9.55055 21.6478L10.3063 20.3522ZM13.25 18.75C13.25 18.3358 12.9142 18 12.5 18C12.0858 18 11.75 18.3358 11.75 18.75H13.25ZM2.75 9.72703C2.75 10.1412 3.08579 10.477 3.5 10.477C3.91421 10.477 4.25 10.1412 4.25 9.72703H2.75ZM3.5 6.75L3.11753 6.10485C2.8897 6.23992 2.75 6.48514 2.75 6.75H3.5ZM6.37388 5.91811C6.73019 5.70688 6.84779 5.2468 6.63655 4.89049C6.42532 4.53419 5.96524 4.41659 5.60893 4.62782L6.37388 5.91811ZM6.27098 9.2697C6.62704 9.48135 7.08726 9.36429 7.29891 9.00823C7.51057 8.65218 7.39351 8.19196 7.03745 7.9803L6.27098 9.2697ZM22.25 14.273C22.25 13.8588 21.9142 13.523 21.5 13.523C21.0858 13.523 20.75 13.8588 20.75 14.273H22.25ZM21.5 17.25L21.8825 17.8951C22.1103 17.7601 22.25 17.5149 22.25 17.25H21.5ZM18.6261 18.0819C18.2698 18.2931 18.1522 18.7532 18.3634 19.1095C18.5747 19.4658 19.0348 19.5834 19.3911 19.3722L18.6261 18.0819ZM18.729 14.7303C18.373 14.5187 17.9127 14.6357 17.7011 14.9918C17.4894 15.3478 17.6065 15.808 17.9625 16.0197L18.729 14.7303ZM5.60456 19.3925C5.95942 19.6062 6.42029 19.4917 6.63394 19.1368C6.84759 18.782 6.73312 18.3211 6.37826 18.1075L5.60456 19.3925ZM3.5 17.25H2.75C2.75 17.513 2.8878 17.7569 3.11315 17.8925L3.5 17.25ZM4.25 14.273C4.25 13.8588 3.91421 13.523 3.5 13.523C3.08579 13.523 2.75 13.8588 2.75 14.273H4.25ZM7.00974 16.0181C7.36488 15.8049 7.47998 15.3442 7.2668 14.989C7.05363 14.6339 6.59291 14.5188 6.23776 14.7319L7.00974 16.0181ZM19.3911 4.62782C19.0348 4.41659 18.5747 4.53419 18.3634 4.89049C18.1522 5.2468 18.2698 5.70688 18.6261 5.91811L19.3911 4.62782ZM21.5 6.75H22.25C22.25 6.48514 22.1103 6.23992 21.8825 6.10485L21.5 6.75ZM20.75 9.72703C20.75 10.1412 21.0858 10.477 21.5 10.477C21.9142 10.477 22.25 10.1412 22.25 9.72703H20.75ZM17.9625 7.9803C17.6065 8.19196 17.4894 8.65218 17.7011 9.00823C17.9127 9.36429 18.373 9.48135 18.729 9.2697L17.9625 7.9803ZM11.75 15C11.75 15.4142 12.0858 15.75 12.5 15.75C12.9142 15.75 13.25 15.4142 13.25 15H11.75ZM15.4495 11.1478C15.8072 10.9391 15.9281 10.4799 15.7194 10.1221C15.5107 9.76432 15.0515 9.64346 14.6937 9.85216L15.4495 11.1478ZM10.3063 9.85216C9.94853 9.64346 9.4893 9.76432 9.2806 10.1221C9.07189 10.4799 9.19276 10.9391 9.55055 11.1478L10.3063 9.85216ZM10.3063 3.64784L12.8779 2.14784L12.1221 0.852157L9.55055 2.35216L10.3063 3.64784ZM12.1221 2.14784L14.6937 3.64784L15.4495 2.35216L12.8779 0.852157L12.1221 2.14784ZM11.75 1.5L11.75 5.25L13.25 5.25L13.25 1.5L11.75 1.5ZM14.6937 20.3522L12.1221 21.8522L12.8779 23.1478L15.4495 21.6478L14.6937 20.3522ZM12.8779 21.8522L10.3063 20.3522L9.55055 21.6478L12.1221 23.1478L12.8779 21.8522ZM13.25 22.5L13.25 18.75H11.75L11.75 22.5H13.25ZM4.25 9.72703V6.75H2.75V9.72703H4.25ZM3.88247 7.39515L6.37388 5.91811L5.60893 4.62782L3.11753 6.10485L3.88247 7.39515ZM3.11677 7.3947L6.27098 9.2697L7.03745 7.9803L3.88323 6.1053L3.11677 7.3947ZM20.75 14.273V17.25H22.25V14.273H20.75ZM21.1175 16.6049L18.6261 18.0819L19.3911 19.3722L21.8825 17.8951L21.1175 16.6049ZM21.8832 16.6053L18.729 14.7303L17.9625 16.0197L21.1168 17.8947L21.8832 16.6053ZM6.37826 18.1075L3.88685 16.6075L3.11315 17.8925L5.60456 19.3925L6.37826 18.1075ZM4.25 17.25V14.273H2.75V17.25H4.25ZM3.88599 17.8931L7.00974 16.0181L6.23776 14.7319L3.11401 16.6069L3.88599 17.8931ZM18.6261 5.91811L21.1175 7.39515L21.8825 6.10485L19.3911 4.62782L18.6261 5.91811ZM20.75 6.75V9.72703H22.25V6.75H20.75ZM21.1168 6.1053L17.9625 7.9803L18.729 9.2697L21.8832 7.3947L21.1168 6.1053ZM13.25 15V12H11.75V15H13.25ZM12.8779 12.6478L15.4495 11.1478L14.6937 9.85216L12.1221 11.3522L12.8779 12.6478ZM12.8779 11.3522L10.3063 9.85216L9.55055 11.1478L12.1221 12.6478L12.8779 11.3522Z" fill="#49516F"/>
</svg>
